<svg width="61" height="59" viewBox="0 0 61 59" fill="none" xmlns="http://www.w3.org/2000/svg">
<path d="M21.46 27.5762C21.8048 27.5762 22.1354 27.4393 22.3792 27.1955C22.623 26.9517 22.76 26.621 22.76 26.2762C22.76 25.9315 22.623 25.6008 22.3792 25.357C22.1354 25.1132 21.8048 24.9762 21.46 24.9762C20.4522 24.9762 19.4856 24.5759 18.773 23.8633C18.0604 23.1506 17.66 22.1841 17.66 21.1762C17.66 20.1684 18.0604 19.2019 18.773 18.4892C19.4856 17.7766 20.4522 17.3762 21.46 17.3762C21.8048 17.3762 22.1354 17.2393 22.3792 16.9955C22.623 16.7517 22.76 16.421 22.76 16.0762C22.76 15.7315 22.623 15.4008 22.3792 15.157C22.1354 14.9132 21.8048 14.7762 21.46 14.7762C19.7826 14.7761 18.1729 15.4376 16.9803 16.6172C15.7877 17.7967 15.1084 19.399 15.09 21.0762C15.0845 22.7794 15.7498 24.4163 16.9419 25.6327C18.134 26.8491 19.7571 27.5473 21.46 27.5762Z" fill="white"/>
<path d="M21.05 20.4763C20.8083 20.2357 20.4811 20.1006 20.14 20.1006C19.799 20.1006 19.4718 20.2357 19.23 20.4763C19.1115 20.5943 19.0175 20.7345 18.9533 20.889C18.8891 21.0434 18.8561 21.209 18.8561 21.3763C18.8561 21.5435 18.8891 21.7091 18.9533 21.8636C19.0175 22.018 19.1115 22.1583 19.23 22.2763L20.55 23.5763C20.7918 23.8169 21.119 23.9519 21.46 23.9519C21.8011 23.9519 22.1283 23.8169 22.37 23.5763L26.21 19.7763C26.331 19.6597 26.4272 19.5199 26.493 19.3652C26.5587 19.2106 26.5926 19.0443 26.5926 18.8763C26.5926 18.7082 26.5587 18.5419 26.493 18.3873C26.4272 18.2327 26.331 18.0929 26.21 17.9763C25.9683 17.7357 25.6411 17.6006 25.3 17.6006C24.959 17.6006 24.6318 17.7357 24.39 17.9763L21.46 20.8763L21.05 20.4763Z" fill="white"/>
<path d="M29.05 21.3762H34.1C34.4448 21.3762 34.7754 21.2393 35.0192 20.9955C35.263 20.7517 35.4 20.421 35.4 20.0762C35.4 19.7315 35.263 19.4008 35.0192 19.157C34.7754 18.9132 34.4448 18.7762 34.1 18.7762H29.05C28.7052 18.7762 28.3746 18.9132 28.1308 19.157C27.887 19.4008 27.75 19.7315 27.75 20.0762C27.75 20.421 27.887 20.7517 28.1308 20.9955C28.3746 21.2393 28.7052 21.3762 29.05 21.3762Z" fill="white"/>
<path d="M37.85 21.3762H39.16C39.5048 21.3762 39.8355 21.2393 40.0793 20.9955C40.3231 20.7517 40.46 20.421 40.46 20.0762C40.46 19.7315 40.3231 19.4008 40.0793 19.157C39.8355 18.9132 39.5048 18.7762 39.16 18.7762H37.85C37.5042 18.7788 37.1729 18.9159 36.9264 19.1586C36.68 19.4013 36.5378 19.7305 36.53 20.0762C36.556 20.4158 36.7039 20.7345 36.9466 20.9735C37.1892 21.2124 37.5101 21.3555 37.85 21.3762Z" fill="white"/>
<path d="M29.05 25.0762H44.22C44.5648 25.0762 44.8954 24.9392 45.1392 24.6954C45.383 24.4516 45.52 24.121 45.52 23.7762C45.52 23.4314 45.383 23.1008 45.1392 22.857C44.8954 22.6132 44.5648 22.4762 44.22 22.4762H29.05C28.7052 22.4762 28.3746 22.6132 28.1308 22.857C27.887 23.1008 27.75 23.4314 27.75 23.7762C27.75 24.121 27.887 24.4516 28.1308 24.6954C28.3746 24.9392 28.7052 25.0762 29.05 25.0762Z" fill="white"/>
<path d="M21.46 41.3762C21.8048 41.3762 22.1354 41.2392 22.3792 40.9954C22.623 40.7516 22.76 40.421 22.76 40.0762C22.76 39.7314 22.623 39.4007 22.3792 39.1569C22.1354 38.9131 21.8048 38.7762 21.46 38.7762C20.4522 38.7762 19.4856 38.3758 18.773 37.6632C18.0604 36.9505 17.66 35.984 17.66 34.9762C17.66 33.9684 18.0604 33.0018 18.773 32.2892C19.4856 31.5765 20.4522 31.1762 21.46 31.1762C21.8048 31.1762 22.1354 31.0392 22.3792 30.7954C22.623 30.5516 22.76 30.221 22.76 29.8762C22.76 29.5314 22.623 29.2007 22.3792 28.9569C22.1354 28.7131 21.8048 28.5762 21.46 28.5762C19.7826 28.5761 18.1729 29.2376 16.9803 30.4171C15.7877 31.5966 15.1084 33.1989 15.09 34.8762C15.0845 36.5793 15.7498 38.2162 16.9419 39.4326C18.134 40.6491 19.7571 41.3473 21.46 41.3762Z" fill="white"/>
<path d="M24.2901 31.6762L21.3601 34.5762L20.9501 34.1762C20.7083 33.9356 20.3811 33.8005 20.0401 33.8005C19.699 33.8005 19.3718 33.9356 19.1301 34.1762C19.0115 34.2942 18.9175 34.4345 18.8533 34.5889C18.7891 34.7434 18.7561 34.909 18.7561 35.0762C18.7561 35.2435 18.7891 35.4091 18.8533 35.5635C18.9175 35.718 19.0115 35.8582 19.1301 35.9762L20.4501 37.2762C20.6918 37.5168 21.019 37.6519 21.3601 37.6519C21.7011 37.6519 22.0283 37.5168 22.2701 37.2762L26.1101 33.4762C26.231 33.3596 26.3273 33.2198 26.393 33.0652C26.4587 32.9105 26.4926 32.7442 26.4926 32.5762C26.4926 32.4082 26.4587 32.2419 26.393 32.0872C26.3273 31.9326 26.231 31.7928 26.1101 31.6762C25.8683 31.4356 25.5411 31.3005 25.2001 31.3005C24.859 31.3005 24.5318 31.4356 24.2901 31.6762Z" fill="white"/>
<path d="M29.05 35.0762H34.1C34.4448 35.0762 34.7754 34.9392 35.0192 34.6954C35.263 34.4516 35.4 34.121 35.4 33.7762C35.4 33.4314 35.263 33.1008 35.0192 32.857C34.7754 32.6132 34.4448 32.4762 34.1 32.4762H29.05C28.7052 32.4762 28.3746 32.6132 28.1308 32.857C27.887 33.1008 27.75 33.4314 27.75 33.7762C27.75 34.121 27.887 34.4516 28.1308 34.6954C28.3746 34.9392 28.7052 35.0762 29.05 35.0762Z" fill="white"/>
<path d="M37.85 32.5762C37.5053 32.5762 37.1746 32.7131 36.9308 32.9569C36.687 33.2007 36.55 33.5314 36.55 33.8762C36.55 34.221 36.687 34.5516 36.9308 34.7954C37.1746 35.0392 37.5053 35.1762 37.85 35.1762H39.16C39.5048 35.1762 39.8355 35.0392 40.0793 34.7954C40.3231 34.5516 40.46 34.221 40.46 33.8762C40.46 33.5314 40.3231 33.2007 40.0793 32.9569C39.8355 32.7131 39.5048 32.5762 39.16 32.5762H37.85Z" fill="white"/>
<path d="M29.05 38.8762H39.16C39.5048 38.8762 39.8354 38.7393 40.0792 38.4955C40.323 38.2517 40.46 37.921 40.46 37.5762C40.46 37.2315 40.323 36.9008 40.0792 36.657C39.8354 36.4132 39.5048 36.2762 39.16 36.2762H29.05C28.7052 36.2762 28.3746 36.4132 28.1308 36.657C27.887 36.9008 27.75 37.2315 27.75 37.5762C27.75 37.921 27.887 38.2517 28.1308 38.4955C28.3746 38.7393 28.7052 38.8762 29.05 38.8762Z" fill="white"/>
<path d="M3.76 48.8762C3.01019 48.8841 2.27947 49.1137 1.65984 49.536C1.04022 49.9583 0.559396 50.5545 0.277907 51.2495C-0.00358197 51.9445 -0.0731501 52.7073 0.0779598 53.4418C0.22907 54.1763 0.594103 54.8496 1.1271 55.377C1.6601 55.9045 2.33723 56.2624 3.07325 56.4059C3.80926 56.5493 4.57125 56.4717 5.26329 56.183C5.95532 55.8942 6.54645 55.4072 6.96226 54.7832C7.37807 54.1592 7.59996 53.4261 7.6 52.6762C7.57677 51.6688 7.16351 50.7097 6.44724 50.0009C5.73098 49.2921 4.76761 48.8889 3.76 48.8762ZM3.76 53.8762C3.50332 53.8742 3.25297 53.7963 3.04051 53.6523C2.82804 53.5082 2.66297 53.3045 2.56611 53.0668C2.46925 52.8291 2.44493 52.568 2.49621 52.3165C2.5475 52.065 2.67209 51.8343 2.85429 51.6535C3.03649 51.4727 3.26814 51.3499 3.52004 51.3005C3.77194 51.2512 4.03281 51.2775 4.26977 51.3762C4.50673 51.4748 4.70918 51.6415 4.85159 51.855C4.99399 52.0686 5.06999 52.3195 5.07 52.5762C5.02947 52.9086 4.87817 53.2176 4.6405 53.4535C4.40284 53.6893 4.09267 53.8382 3.76 53.8762Z" fill="white"/>
<path d="M5.57998 13.8762C4.96686 13.8762 4.36751 14.058 3.85771 14.3987C3.34792 14.7393 2.95059 15.2235 2.71595 15.7899C2.48132 16.3564 2.41993 16.9797 2.53955 17.581C2.65916 18.1823 2.95441 18.7347 3.38795 19.1683C3.82149 19.6018 4.37386 19.897 4.9752 20.0167C5.57654 20.1363 6.19985 20.0749 6.7663 19.8402C7.33275 19.6056 7.81691 19.2083 8.15754 18.6985C8.49817 18.1887 8.67998 17.5893 8.67998 16.9762C8.66961 16.1573 8.33968 15.3748 7.76055 14.7957C7.18142 14.2165 6.39893 13.8866 5.57998 13.8762ZM5.57998 17.5762C5.46131 17.5762 5.34531 17.541 5.24664 17.4751C5.14797 17.4092 5.07107 17.3155 5.02565 17.2058C4.98024 17.0962 4.96836 16.9756 4.99151 16.8592C5.01466 16.7428 5.07181 16.6359 5.15572 16.552C5.23963 16.468 5.34654 16.4109 5.46293 16.3877C5.57932 16.3646 5.69996 16.3765 5.80959 16.4219C5.91923 16.4673 6.01293 16.5442 6.07886 16.6429C6.14479 16.7415 6.17998 16.8576 6.17998 16.9762C6.27998 17.2762 5.97998 17.5762 5.57998 17.5762Z" fill="white"/>
<path d="M56.1601 11.3762C57.0267 11.3604 57.8694 11.089 58.5824 10.5961C59.2954 10.1031 59.8468 9.41055 60.1676 8.60529C60.4884 7.80004 60.5642 6.91797 60.3855 6.06979C60.2068 5.22161 59.7816 4.44511 59.1632 3.83773C58.5448 3.23036 57.7607 2.81918 56.9095 2.65578C56.0582 2.49239 55.1776 2.58407 54.3783 2.91932C53.5789 3.25457 52.8964 3.81845 52.4164 4.54019C51.9364 5.26193 51.6802 6.10938 51.6801 6.97618C51.6985 8.15126 52.1789 9.27182 53.0173 10.0953C53.8558 10.9188 54.9848 11.379 56.1601 11.3762ZM56.1601 5.07618C56.4109 5.07486 56.6595 5.12296 56.8917 5.21774C57.124 5.31251 57.3353 5.45209 57.5136 5.62853C57.6919 5.80496 57.8336 6.01478 57.9308 6.24601C58.028 6.47724 58.0787 6.72535 58.0801 6.97618C58.045 7.46275 57.8269 7.91798 57.4698 8.25029C57.1126 8.58261 56.6429 8.76735 56.1551 8.76735C55.6672 8.76735 55.1975 8.58261 54.8403 8.25029C54.4832 7.91798 54.2651 7.46275 54.2301 6.97618C54.2314 6.72451 54.2824 6.47557 54.3802 6.24368C54.478 6.01179 54.6207 5.80153 54.8001 5.62496C54.9794 5.4484 55.1919 5.30902 55.4253 5.21484C55.6587 5.12066 55.9084 5.07354 56.1601 5.07618Z" fill="white"/>
<path d="M50.49 36.3762V12.2762C50.4873 11.6555 50.3623 11.0415 50.1221 10.4692C49.8818 9.89684 49.531 9.37754 49.0898 8.94097C48.6486 8.5044 48.1256 8.15915 47.5508 7.92496C46.976 7.69078 46.3606 7.57227 45.74 7.57622H42.68C42.4041 6.49643 41.7789 5.53821 40.9016 4.85087C40.0244 4.16353 38.9444 3.78569 37.83 3.77622H35.12C34.8454 2.68842 34.2129 1.72458 33.3243 1.0397C32.4356 0.354829 31.3425 -0.0112771 30.2206 0.000264772C29.0987 0.0118066 28.0133 0.400324 27.139 1.10334C26.2646 1.80635 25.6521 2.783 25.4 3.87622H22.68C21.5633 3.87709 20.4791 4.25172 19.6001 4.94041C18.7211 5.6291 18.098 6.59221 17.83 7.67622H14.83C14.2093 7.67227 13.5939 7.79078 13.0191 8.02496C12.4443 8.25915 11.9213 8.6044 11.4801 9.04097C11.0389 9.47754 10.6881 9.99684 10.4478 10.5692C10.2076 11.1415 10.0826 11.7555 10.08 12.3762V54.2762C10.0826 54.8969 10.2076 55.511 10.4478 56.0833C10.6881 56.6556 11.0389 57.1749 11.4801 57.6115C11.9213 58.048 12.4443 58.3933 13.0191 58.6275C13.5939 58.8617 14.2093 58.9802 14.83 58.9762H45.83C46.2734 58.9663 46.7137 58.899 47.14 58.7762C48.7693 59.0709 50.4434 59.0056 52.0448 58.5848C53.6463 58.1639 55.1362 57.3978 56.4102 56.3401C57.6841 55.2825 58.7113 53.9589 59.4195 52.4622C60.1277 50.9655 60.4999 49.332 60.51 47.6762C60.5573 44.8803 59.5543 42.1684 57.6991 40.0762C55.8439 37.984 53.2714 36.6637 50.49 36.3762ZM22.68 6.37622H26.53C26.8723 6.36858 27.1986 6.22917 27.4407 5.98701C27.6829 5.74485 27.8223 5.4186 27.83 5.07622C27.83 4.40523 28.0965 3.76171 28.571 3.28724C29.0454 2.81278 29.689 2.54622 30.36 2.54622C31.031 2.54622 31.6745 2.81278 32.1489 3.28724C32.6234 3.76171 32.89 4.40523 32.89 5.07622C32.8977 5.4203 33.0385 5.74799 33.2828 5.99042C33.5271 6.23284 33.8558 6.37113 34.2 6.37622H38.05C38.713 6.37622 39.3489 6.63961 39.8177 7.10846C40.2866 7.5773 40.55 8.21318 40.55 8.87622C40.55 9.53926 40.2866 10.1751 39.8177 10.644C39.3489 11.1128 38.713 11.3762 38.05 11.3762H22.87C22.5396 11.3802 22.2118 11.3184 21.9055 11.1944C21.5993 11.0705 21.3208 10.8868 21.0863 10.6541C20.8517 10.4214 20.6658 10.1444 20.5394 9.83916C20.413 9.53393 20.3486 9.20659 20.35 8.87622C20.325 8.55592 20.3669 8.23393 20.4729 7.93065C20.5789 7.62737 20.7467 7.34942 20.9658 7.11439C21.1848 6.87937 21.4503 6.6924 21.7454 6.56533C22.0404 6.43827 22.3587 6.37387 22.68 6.37622ZM14.79 56.3762C14.2054 56.3737 13.6453 56.1417 13.2301 55.7302C12.8149 55.3188 12.5778 54.7607 12.57 54.1762V12.2762C12.5778 11.6935 12.8134 11.1369 13.2265 10.7257C13.6395 10.3145 14.1972 10.0814 14.78 10.0762H17.78C18.0574 11.1092 18.6587 12.026 19.4957 12.692C20.3326 13.3579 21.3611 13.738 22.43 13.7762H38.25C38.4258 13.7884 38.6017 13.7539 38.76 13.6762C39.7131 13.5124 40.5983 13.0757 41.3082 12.419C42.0182 11.7623 42.5225 10.9137 42.76 9.97622H45.76C46.3445 9.97879 46.9047 10.2108 47.3199 10.6222C47.7351 11.0337 47.9721 11.5917 47.98 12.1762V36.2762C45.2262 36.5899 42.6835 37.9037 40.8346 39.9684C38.9856 42.033 37.9591 44.7047 37.95 47.4762C37.9477 49.1545 38.3296 50.811 39.0662 52.319C39.8029 53.827 40.8748 55.1464 42.2 56.1762H14.78L14.79 56.3762ZM49.29 56.3762C47.5539 56.3565 45.8624 55.8237 44.4285 54.8448C42.9945 53.8659 41.8822 52.4847 41.2315 50.8751C40.5807 49.2655 40.4207 47.4993 40.7714 45.7989C41.1222 44.0986 41.9681 42.5399 43.2027 41.3192C44.4373 40.0985 46.0054 39.2702 47.7096 38.9387C49.4139 38.6072 51.1781 38.7872 52.7803 39.4561C54.3824 40.125 55.7509 41.2529 56.7135 42.6978C57.6762 44.1427 58.1898 45.84 58.19 47.5762C58.1741 49.9243 57.2268 52.1701 55.5561 53.8201C53.8854 55.4702 51.6281 56.3895 49.28 56.3762H49.29Z" fill="white"/>
<path d="M31.57 43.8762H17.57C17.3993 43.8762 17.2303 43.9098 17.0725 43.9752C16.9148 44.0405 16.7715 44.1363 16.6508 44.257C16.5301 44.3777 16.4343 44.521 16.369 44.6787C16.3036 44.8365 16.27 45.0055 16.27 45.1762C16.27 45.3469 16.3036 45.516 16.369 45.6737C16.4343 45.8314 16.5301 45.9747 16.6508 46.0955C16.7715 46.2162 16.9148 46.3119 17.0725 46.3773C17.2303 46.4426 17.3993 46.4762 17.57 46.4762H31.57C31.9159 46.4737 32.2472 46.3366 32.4936 46.0939C32.74 45.8512 32.8822 45.522 32.89 45.1762C32.8662 44.8359 32.7189 44.516 32.4758 44.2766C32.2328 44.0373 31.9107 43.8949 31.57 43.8762Z" fill="white"/>
<path d="M31.57 47.5762H17.57C17.3993 47.5762 17.2303 47.6098 17.0725 47.6751C16.9148 47.7405 16.7715 47.8362 16.6508 47.9569C16.5301 48.0776 16.4343 48.221 16.369 48.3787C16.3036 48.5364 16.27 48.7055 16.27 48.8762C16.27 49.0469 16.3036 49.2159 16.369 49.3737C16.4343 49.5314 16.5301 49.6747 16.6508 49.7954C16.7715 49.9161 16.9148 50.0119 17.0725 50.0772C17.2303 50.1425 17.3993 50.1762 17.57 50.1762H31.57C31.9159 50.1737 32.2472 50.0365 32.4936 49.7938C32.74 49.5511 32.8822 49.222 32.89 48.8762C32.849 48.5423 32.6963 48.2321 32.4566 47.9961C32.217 47.76 31.9045 47.612 31.57 47.5762Z" fill="white"/>
<path d="M53.93 45.5762L49.38 47.0762L44.83 44.0762C44.5609 43.8919 44.2303 43.8201 43.909 43.8761C43.5876 43.9322 43.3009 44.1117 43.11 44.3762C43.0167 44.507 42.9504 44.6551 42.9149 44.8119C42.8795 44.9686 42.8756 45.1309 42.9035 45.2891C42.9315 45.4474 42.9906 45.5985 43.0776 45.7336C43.1646 45.8688 43.2776 45.9852 43.41 46.0762L48.47 49.3762C48.6289 49.4912 48.8159 49.5612 49.0113 49.5788C49.2066 49.5964 49.4031 49.561 49.58 49.4762L54.68 47.7762C54.8413 47.7289 54.9911 47.6491 55.1203 47.5416C55.2495 47.4342 55.3554 47.3014 55.4312 47.1515C55.5071 47.0016 55.5515 46.8377 55.5616 46.6699C55.5717 46.5022 55.5474 46.3342 55.49 46.1762C55.3483 45.9028 55.1113 45.6909 54.8238 45.5803C54.5364 45.4698 54.2185 45.4683 53.93 45.5762Z" fill="white"/>
</svg>
