<svg width="102" height="100" viewBox="0 0 102 100" fill="none" xmlns="http://www.w3.org/2000/svg">
<path d="M74.5799 67.647H51.7199C51.6162 67.64 51.5185 67.5956 51.4449 67.522C51.3714 67.4485 51.327 67.3508 51.3199 67.247V43.847C51.3199 43.747 51.4199 43.647 51.4199 43.547L62.8499 32.947C62.8865 32.9012 62.9329 32.8641 62.9857 32.8387C63.0385 32.8133 63.0963 32.8 63.1549 32.8C63.2136 32.8 63.2714 32.8133 63.3242 32.8387C63.377 32.8641 63.4234 32.9012 63.4599 32.947L74.8899 43.447C74.9277 43.4865 74.9563 43.5339 74.9736 43.5858C74.9909 43.6376 74.9965 43.6927 74.9899 43.747V67.147C75.0011 67.2675 74.9644 67.3876 74.8876 67.4812C74.8109 67.5748 74.7003 67.6344 74.5799 67.647ZM52.1299 66.747H74.1299V43.947L63.1299 33.847L52.1299 43.947V66.747Z" fill="black"/>
<path d="M78.02 47.4469C77.9657 47.4535 77.9107 47.4479 77.8588 47.4306C77.8069 47.4133 77.7595 47.3847 77.72 47.3469L63.13 33.8469L48.59 47.3469C48.525 47.4131 48.4415 47.458 48.3505 47.4759C48.2595 47.4937 48.1652 47.4836 48.08 47.4469C47.88 47.3469 47.78 47.2469 47.78 47.0469V44.2469C47.78 44.1469 47.88 44.0469 47.88 43.9469L62.88 30.1469C62.9166 30.1011 62.9629 30.0641 63.0158 30.0387C63.0686 30.0132 63.1264 30 63.185 30C63.2436 30 63.3015 30.0132 63.3543 30.0387C63.4071 30.0641 63.4535 30.1011 63.49 30.1469L78.33 43.8469C78.3678 43.8865 78.3964 43.9339 78.4137 43.9857C78.431 44.0376 78.4366 44.0927 78.43 44.1469V46.9469C78.43 47.1469 78.33 47.2469 78.12 47.3469C78.12 47.3601 78.1174 47.3731 78.1124 47.3852C78.1074 47.3973 78.1 47.4084 78.0907 47.4177C78.0815 47.4269 78.0704 47.4343 78.0583 47.4393C78.0462 47.4444 78.0332 47.4469 78.02 47.4469ZM48.69 44.3469V45.9469L62.75 32.9469C62.7843 32.8994 62.8294 32.8608 62.8815 32.8341C62.9337 32.8074 62.9914 32.7935 63.05 32.7935C63.1086 32.7935 63.1664 32.8074 63.2185 32.8341C63.2707 32.8608 63.3157 32.8994 63.35 32.9469L77.42 45.9469V44.3469L63.13 31.0469L48.69 44.3469Z" fill="black"/>
<path d="M73.57 40.547C73.5157 40.5536 73.4606 40.548 73.4088 40.5307C73.3569 40.5134 73.3095 40.4848 73.27 40.447L70.74 38.047C70.7022 38.0075 70.6736 37.9601 70.6563 37.9082C70.639 37.8564 70.6334 37.8013 70.64 37.747V35.847C70.647 35.7432 70.6914 35.6455 70.7649 35.572C70.8385 35.4984 70.9362 35.454 71.04 35.447H73.57C73.6748 35.4538 73.7738 35.4978 73.849 35.5712C73.9242 35.6445 73.9706 35.7424 73.98 35.847V40.147C73.98 40.347 73.88 40.447 73.67 40.547H73.57ZM71.45 37.547L73.07 39.047V36.247H71.45V37.547Z" fill="black"/>
<path d="M51.72 67.647H28.05C27.9462 67.64 27.8485 67.5956 27.775 67.5221C27.7014 67.4485 27.657 67.3508 27.65 67.247V54.847C27.657 54.7432 27.7014 54.6455 27.775 54.572C27.8485 54.4984 27.9462 54.454 28.05 54.447H51.72C51.8249 54.4538 51.9238 54.4978 51.999 54.5712C52.0742 54.6445 52.1207 54.7424 52.13 54.847V67.147C52.1412 67.2675 52.1044 67.3876 52.0277 67.4812C51.9509 67.5748 51.8404 67.6344 51.72 67.647ZM28.56 66.747H51.22V55.347H28.56V66.747Z" fill="black"/>
<path d="M51.72 55.3469H25.42C25.3426 55.3454 25.2666 55.3267 25.1974 55.2921C25.1282 55.2575 25.0676 55.2079 25.02 55.1469C24.9648 55.0752 24.9349 54.9873 24.9349 54.8969C24.9349 54.8064 24.9648 54.7186 25.02 54.6469L27.65 50.7469C27.6976 50.6859 27.7582 50.6363 27.8274 50.6017C27.8966 50.5671 27.9726 50.5484 28.05 50.5469H51.72C51.8248 50.5536 51.9238 50.5977 51.999 50.671C52.0742 50.7444 52.1206 50.8422 52.13 50.9469V54.8469C52.1412 54.9674 52.1044 55.0875 52.0276 55.1811C51.9509 55.2747 51.8404 55.3342 51.72 55.3469ZM26.33 54.4469H51.22V51.4469H28.35L26.33 54.4469Z" fill="black"/>
<path d="M51.72 51.447H36.85C36.7462 51.44 36.6485 51.3956 36.5749 51.322C36.5014 51.2485 36.457 51.1507 36.45 51.047V47.047C36.457 46.9432 36.5014 46.8455 36.5749 46.7719C36.6485 46.6984 36.7462 46.654 36.85 46.647H51.72C51.8248 46.6537 51.9238 46.6978 51.999 46.7711C52.0742 46.8445 52.1206 46.9423 52.13 47.047V51.047C52.1206 51.1516 52.0742 51.2495 51.999 51.3228C51.9238 51.3962 51.8248 51.4402 51.72 51.447ZM37.26 50.547H51.26V47.447H37.26V50.547Z" fill="black"/>
<path d="M51.72 47.4469H34.32C34.2426 47.4454 34.1665 47.4267 34.0974 47.3921C34.0282 47.3575 33.9675 47.3079 33.92 47.2469C33.8705 47.1729 33.8441 47.0859 33.8441 46.9969C33.8441 46.9079 33.8705 46.8209 33.92 46.7469L35.6399 44.0469C35.6875 43.9859 35.7482 43.9363 35.8174 43.9017C35.8866 43.8671 35.9626 43.8484 36.04 43.8469H48.18C48.2848 43.8536 48.3838 43.8977 48.459 43.971C48.5342 44.0444 48.5806 44.1422 48.59 44.2469V45.9469L50.71 43.9469C50.7495 43.9091 50.7969 43.8805 50.8487 43.8632C50.9006 43.8459 50.9557 43.8404 51.01 43.8469H51.72C51.8248 43.8536 51.9238 43.8977 51.999 43.971C52.0742 44.0444 52.1206 44.1422 52.13 44.2469V46.9469C52.1411 47.0674 52.1044 47.1875 52.0276 47.2811C51.9509 47.3747 51.8403 47.4343 51.72 47.4469ZM49.3899 46.5469H51.22V44.8469L49.3899 46.5469ZM35.2299 46.5469H47.88V44.7469H36.34L35.2299 46.5469Z" fill="black"/>
<path d="M60.62 48.6469H57.49C57.3844 48.6422 57.2843 48.5989 57.2087 48.5251C57.133 48.4513 57.0872 48.3523 57.08 48.2469V42.4469C57.0872 42.3415 57.133 42.2424 57.2087 42.1687C57.2843 42.0949 57.3844 42.0515 57.49 42.0469H60.62C60.7255 42.0515 60.8256 42.0949 60.9013 42.1687C60.9769 42.2424 61.0227 42.3415 61.03 42.4469V48.2469C61.0227 48.3523 60.9769 48.4513 60.9013 48.5251C60.8256 48.5989 60.7255 48.6422 60.62 48.6469ZM57.99 47.7469H60.22V42.7469H57.99V47.7469Z" fill="black"/>
<path d="M68.72 48.6469H60.52C60.4162 48.6399 60.3185 48.5955 60.245 48.5219C60.1714 48.4484 60.127 48.3507 60.12 48.2469V42.4469C60.127 42.3431 60.1714 42.2454 60.245 42.1718C60.3185 42.0983 60.4162 42.0539 60.52 42.0469H68.72C68.8238 42.0539 68.9215 42.0983 68.995 42.1718C69.0686 42.2454 69.113 42.3431 69.12 42.4469V48.2469C69.22 48.4469 69.02 48.6469 68.72 48.6469ZM61.03 47.7469H68.31V42.7469H61.03V47.7469Z" fill="black"/>
<path d="M36.65 67.6469H32.13C32.0244 67.6422 31.9243 67.5989 31.8487 67.5251C31.7731 67.4513 31.7272 67.3523 31.72 67.2469V58.4469C31.7272 58.3415 31.7731 58.2424 31.8487 58.1687C31.9243 58.0949 32.0244 58.0515 32.13 58.0469H36.68C36.7837 58.0539 36.8815 58.0983 36.955 58.1718C37.0286 58.2454 37.073 58.3431 37.08 58.4469V67.2469C37.0724 67.3556 37.0237 67.4575 36.9439 67.5317C36.8641 67.606 36.759 67.6471 36.65 67.6469ZM32.5 66.7469H36.13V58.8469H32.5V66.7469Z" fill="black"/>
<path d="M48.8901 64.2469H39.5801C39.4763 64.2399 39.3786 64.1955 39.305 64.1219C39.2315 64.0484 39.1871 63.9506 39.1801 63.8469V58.4469C39.1871 58.3431 39.2315 58.2454 39.305 58.1718C39.3786 58.0983 39.4763 58.0539 39.5801 58.0469H48.8901C48.9938 58.0539 49.0915 58.0983 49.1651 58.1718C49.2386 58.2454 49.283 58.3431 49.2901 58.4469V63.7469C49.3014 63.8659 49.266 63.9846 49.1913 64.0779C49.1167 64.1712 49.0086 64.2318 48.8901 64.2469ZM39.9901 63.3469H48.3801V58.8469H39.9901V63.3469Z" fill="black"/>
<path d="M48.89 60.747H40.89C40.7839 60.747 40.6822 60.7049 40.6071 60.6299C40.5321 60.5548 40.49 60.4531 40.49 60.347C40.49 60.2409 40.5321 60.1392 40.6071 60.0642C40.6822 59.9892 40.7839 59.947 40.89 59.947H48.89C48.9961 59.947 49.0978 59.9892 49.1728 60.0642C49.2478 60.1392 49.29 60.2409 49.29 60.347C49.29 60.4531 49.2478 60.5548 49.1728 60.6299C49.0978 60.7049 48.9961 60.747 48.89 60.747Z" fill="black"/>
<path d="M48.89 62.247H40.89C40.7839 62.247 40.6822 62.2049 40.6071 62.1299C40.5321 62.0548 40.49 61.9531 40.49 61.847C40.49 61.7409 40.5321 61.6392 40.6071 61.5642C40.6822 61.4892 40.7839 61.447 40.89 61.447H48.89C48.9961 61.447 49.0978 61.4892 49.1728 61.5642C49.2478 61.6392 49.29 61.7409 49.29 61.847C49.29 61.9531 49.2478 62.0548 49.1728 62.1299C49.0978 62.2049 48.9961 62.247 48.89 62.247Z" fill="black"/>
<path d="M60.7199 58.647H55.9699C55.8662 58.64 55.7685 58.5956 55.6949 58.522C55.6214 58.4485 55.577 58.3507 55.5699 58.247V53.547C55.577 53.4432 55.6214 53.3455 55.6949 53.2719C55.7685 53.1984 55.8662 53.154 55.9699 53.147H60.7199C60.8255 53.1516 60.9256 53.195 61.0012 53.2688C61.0769 53.3425 61.1227 53.4416 61.1299 53.547V58.247C61.1227 58.3524 61.0769 58.4514 61.0012 58.5252C60.9256 58.599 60.8255 58.6423 60.7199 58.647ZM56.3699 57.747H60.2199V53.947H56.3699V57.747Z" fill="black"/>
<path d="M65.4799 58.647H60.7199C60.6162 58.64 60.5185 58.5956 60.4449 58.522C60.3714 58.4485 60.327 58.3507 60.3199 58.247V53.547C60.327 53.4432 60.3714 53.3455 60.4449 53.2719C60.5185 53.1984 60.6162 53.154 60.7199 53.147H65.4799C65.5837 53.154 65.6814 53.1984 65.755 53.2719C65.8285 53.3455 65.8729 53.4432 65.8799 53.547V58.247C65.9799 58.447 65.7799 58.647 65.4799 58.647ZM61.1299 57.747H64.9699V53.947H61.1299V57.747Z" fill="black"/>
<path d="M70.3299 58.647H65.4799C65.3751 58.6402 65.2761 58.5962 65.2009 58.5228C65.1257 58.4495 65.0793 58.3516 65.0699 58.247V53.547C65.0793 53.4423 65.1257 53.3445 65.2009 53.2711C65.2761 53.1978 65.3751 53.1537 65.4799 53.147H70.3299C70.4355 53.1516 70.5356 53.195 70.6112 53.2688C70.6869 53.3425 70.7327 53.4416 70.7399 53.547V58.247C70.7327 58.3524 70.6869 58.4514 70.6112 58.5252C70.5356 58.599 70.4355 58.6423 70.3299 58.647ZM65.9799 57.747H69.9799V53.947H65.9799V57.747Z" fill="black"/>
<path d="M60.7199 63.3469H55.9699C55.8662 63.3399 55.7685 63.2955 55.6949 63.222C55.6214 63.1484 55.577 63.0507 55.5699 62.9469V58.2469C55.577 58.1432 55.6214 58.0454 55.6949 57.9719C55.7685 57.8983 55.8662 57.8539 55.9699 57.8469H60.7199C60.8255 57.8516 60.9256 57.8949 61.0012 57.9687C61.0769 58.0425 61.1227 58.1415 61.1299 58.2469V62.9469C61.1227 63.0523 61.0769 63.1514 61.0012 63.2251C60.9256 63.2989 60.8255 63.3423 60.7199 63.3469ZM56.3699 62.4469H60.2199V58.6469H56.3699V62.4469Z" fill="black"/>
<path d="M65.4799 63.3469H60.7199C60.6162 63.3399 60.5185 63.2955 60.4449 63.222C60.3714 63.1484 60.327 63.0507 60.3199 62.9469V58.2469C60.327 58.1432 60.3714 58.0454 60.4449 57.9719C60.5185 57.8983 60.6162 57.8539 60.7199 57.8469H65.4799C65.5837 57.8539 65.6814 57.8983 65.755 57.9719C65.8285 58.0454 65.8729 58.1432 65.8799 58.2469V62.9469C65.9799 63.1469 65.7799 63.3469 65.4799 63.3469ZM61.1299 62.4469H64.9699V58.6469H61.1299V62.4469Z" fill="black"/>
<path d="M70.3299 63.3469H65.4799C65.3751 63.3402 65.2761 63.2961 65.2009 63.2228C65.1257 63.1494 65.0793 63.0516 65.0699 62.9469V58.2469C65.0793 58.1423 65.1257 58.0444 65.2009 57.9711C65.2761 57.8977 65.3751 57.8537 65.4799 57.8469H70.3299C70.4355 57.8516 70.5356 57.8949 70.6112 57.9687C70.6869 58.0425 70.7327 58.1415 70.7399 58.2469V62.9469C70.7327 63.0523 70.6869 63.1514 70.6112 63.2251C70.5356 63.2989 70.4355 63.3423 70.3299 63.3469ZM65.9799 62.4469H69.9799V58.6469H65.9799V62.4469Z" fill="black"/>
<path d="M76.81 67.6469H24.91C24.8039 67.6469 24.7022 67.6048 24.6272 67.5298C24.5522 67.4548 24.51 67.353 24.51 67.2469C24.51 67.1408 24.5522 67.0391 24.6272 66.9641C24.7022 66.8891 24.8039 66.8469 24.91 66.8469H76.81C76.9138 66.8539 77.0115 66.8983 77.0851 66.9719C77.1586 67.0454 77.203 67.1432 77.21 67.2469C77.2146 67.3006 77.2074 67.3546 77.1889 67.4052C77.1704 67.4558 77.1411 67.5018 77.103 67.5399C77.0649 67.578 77.0189 67.6073 76.9683 67.6258C76.9177 67.6443 76.8637 67.6515 76.81 67.6469Z" fill="black"/>
<path d="M72.76 69.547H46.87C46.7639 69.547 46.6621 69.5048 46.5871 69.4298C46.5121 69.3548 46.47 69.253 46.47 69.1469C46.47 69.0409 46.5121 68.9391 46.5871 68.8641C46.6621 68.7891 46.7639 68.7469 46.87 68.7469H72.76C72.8661 68.7469 72.9678 68.7891 73.0428 68.8641C73.1178 68.9391 73.16 69.0409 73.16 69.1469C73.16 69.253 73.1178 69.3548 73.0428 69.4298C72.9678 69.5048 72.8661 69.547 72.76 69.547Z" fill="black"/>
<path d="M35.74 69.447H23.4C23.2939 69.447 23.1922 69.4048 23.1172 69.3298C23.0421 69.2548 23 69.1531 23 69.047C23 68.9409 23.0421 68.8391 23.1172 68.7641C23.1922 68.6891 23.2939 68.647 23.4 68.647H35.64C35.7438 68.654 35.8415 68.6984 35.915 68.7719C35.9886 68.8455 36.033 68.9432 36.04 69.047C36.04 69.247 35.94 69.447 35.74 69.447Z" fill="black"/>
<path d="M44.84 38.447H38.84C38.4436 38.4394 38.0654 38.2792 37.7842 37.9998C37.5029 37.7204 37.3402 37.3433 37.33 36.947C37.321 36.6204 37.4273 36.301 37.6303 36.045C37.8333 35.789 38.1199 35.6127 38.44 35.547C38.4871 35.2156 38.6256 34.904 38.84 34.647C39.0551 34.4785 39.2945 34.3436 39.55 34.247C39.6613 33.9662 39.8587 33.7279 40.1138 33.5663C40.3689 33.4046 40.6686 33.3278 40.97 33.347C41.111 33.332 41.2527 33.3674 41.37 33.447C41.5298 33.2866 41.72 33.1597 41.9296 33.0739C42.1391 32.988 42.3636 32.9449 42.59 32.947C42.9762 32.9582 43.3493 33.0894 43.6576 33.3223C43.9658 33.5553 44.1938 33.8785 44.31 34.247C44.5349 34.2443 44.7581 34.2863 44.9667 34.3706C45.1753 34.4548 45.365 34.5796 45.525 34.7378C45.685 34.8959 45.812 35.0842 45.8987 35.2918C45.9854 35.4993 46.03 35.722 46.03 35.947V36.047C46.2181 36.31 46.3227 36.6237 46.33 36.947C46.3176 37.3392 46.157 37.7121 45.8804 37.9904C45.6039 38.2688 45.2321 38.432 44.84 38.447ZM39.99 35.047C39.911 35.047 39.8329 35.065 39.7619 35.0996C39.6908 35.1343 39.6286 35.1847 39.58 35.247C39.4747 35.3572 39.405 35.4966 39.38 35.647V35.747C39.395 35.8879 39.3595 36.0296 39.28 36.147C39.18 36.247 39.08 36.347 38.98 36.347C38.8209 36.347 38.6683 36.4102 38.5557 36.5227C38.4432 36.6352 38.38 36.7878 38.38 36.947C38.38 37.1061 38.4432 37.2587 38.5557 37.3712C38.6683 37.4838 38.8209 37.547 38.98 37.547H44.98C45.1371 37.5377 45.2855 37.4718 45.3976 37.3615C45.5098 37.2512 45.5782 37.1039 45.59 36.947C45.5885 36.8696 45.5698 36.7936 45.5352 36.7244C45.5006 36.6552 45.451 36.5946 45.39 36.547C45.29 36.447 45.19 36.247 45.29 36.147V35.947C45.2736 35.7386 45.1828 35.543 45.034 35.3961C44.8853 35.2492 44.6886 35.1607 44.48 35.147C44.4242 35.141 44.3678 35.1468 44.3144 35.164C44.2609 35.1812 44.2118 35.2095 44.17 35.247C44.07 35.347 43.87 35.247 43.77 35.147C43.6647 35.0367 43.595 34.8973 43.57 34.747V34.647C43.5536 34.4386 43.4628 34.243 43.314 34.0961C43.1653 33.9492 42.9686 33.8607 42.76 33.847C42.6159 33.8394 42.4726 33.8729 42.3469 33.9438C42.2211 34.0146 42.1182 34.1198 42.05 34.247C42.0217 34.2996 41.9817 34.345 41.9331 34.3797C41.8845 34.4144 41.8286 34.4375 41.7696 34.4471C41.7107 34.4568 41.6503 34.4528 41.5931 34.4354C41.536 34.418 41.4836 34.3878 41.44 34.347C41.4005 34.3092 41.3531 34.2806 41.3012 34.2633C41.2493 34.246 41.1943 34.2404 41.14 34.247C40.9971 34.2502 40.8594 34.3012 40.7488 34.3918C40.6383 34.4825 40.5612 34.6075 40.53 34.747C40.4832 34.8388 40.4114 34.9156 40.323 34.9687C40.2346 35.0217 40.1331 35.0489 40.03 35.047H39.99Z" fill="black"/>
</svg>
