<svg width="60" height="61" viewBox="0 0 60 61" fill="none" xmlns="http://www.w3.org/2000/svg">
<path d="M59.3304 40.8C53.4604 28.9 53.8704 29.7 53.8204 29.6C53.7343 29.4587 53.6161 29.3398 53.4753 29.2529C53.3346 29.166 53.1753 29.1136 53.0104 29.1L42.0804 27.1C41.7489 27.0451 41.409 27.1178 41.1289 27.3033C40.8488 27.4888 40.6493 27.7734 40.5704 28.1C40.5326 28.2645 40.5288 28.435 40.5592 28.601C40.5896 28.767 40.6536 28.9251 40.7472 29.0655C40.8408 29.2059 40.9621 29.3258 41.1037 29.4177C41.2452 29.5096 41.404 29.5716 41.5704 29.6L45.8204 30.4L34.5504 32.5C34.7504 31.8143 34.7504 31.0857 34.5504 30.4C35.1053 30.2265 35.6049 29.9103 35.9992 29.4831C36.3936 29.0559 36.6688 28.5326 36.7974 27.9656C36.926 27.3986 36.9034 26.8078 36.732 26.2522C36.5605 25.6967 36.2462 25.1959 35.8204 24.8C36.1861 22.5341 37.1259 20.3997 38.5504 18.6C39.9079 16.9745 40.7832 15.0014 41.077 12.904C41.3708 10.8067 41.0714 8.66899 40.2127 6.73306C39.354 4.79714 37.9704 3.14035 36.2185 1.95037C34.4666 0.76038 32.4165 0.0847487 30.3004 0H30.2004C28.0732 0.0614457 26.0062 0.720211 24.2358 1.90098C22.4654 3.08175 21.0629 4.73687 20.1887 6.67711C19.3146 8.61736 19.004 10.7644 19.2926 12.8729C19.5811 14.9813 20.4571 16.966 21.8204 18.6C23.2531 20.3947 24.1939 22.5314 24.5504 24.8C24.1019 25.194 23.7675 25.7013 23.5823 26.2689C23.3972 26.8364 23.368 27.4433 23.4978 28.026C23.6276 28.6087 23.9117 29.1458 24.3203 29.5811C24.7289 30.0163 25.247 30.3337 25.8204 30.5C25.5604 31.2103 25.5604 31.9897 25.8204 32.7L14.0104 30.5L20.5904 29.3C20.7549 29.2677 20.9113 29.2033 21.0507 29.1103C21.1901 29.0173 21.3098 28.8976 21.4027 28.7582C21.4957 28.6188 21.5601 28.4623 21.5923 28.2979C21.6245 28.1334 21.6239 27.9642 21.5904 27.8C21.5206 27.4663 21.3216 27.1738 21.0367 26.9864C20.7519 26.799 20.4045 26.732 20.0704 26.8C6.02041 29.1 6.82041 29 6.73041 29C6.40074 29.1035 6.11545 29.3148 5.92041 29.6L0.150405 40.7C0.0591893 40.8679 0.00801197 41.0546 0.000867199 41.2456C-0.00627757 41.4365 0.0308046 41.6265 0.109218 41.8008C0.187631 41.975 0.305255 42.1288 0.452907 42.2501C0.600559 42.3714 0.774243 42.4569 0.960405 42.5L5.51041 43.6V56C5.5064 56.2865 5.60502 56.5649 5.78842 56.785C5.97183 57.0051 6.22792 57.1523 6.51041 57.2C31.2904 61.1 29.5704 60.9 29.9704 60.9C31.3904 60.7 51.5204 57.4 52.7404 57.2C53.0374 57.1701 53.3127 57.0307 53.5124 56.8088C53.7121 56.5869 53.8219 56.2985 53.8204 56V43.6L58.3704 42.5C59.3304 42.3 59.7404 41.5 59.3304 40.8ZM29.0804 30.4H31.3104C31.4286 30.4 31.5456 30.4233 31.6548 30.4685C31.764 30.5137 31.8632 30.58 31.9468 30.6636C32.0304 30.7472 32.0967 30.8464 32.1419 30.9556C32.1871 31.0648 32.2104 31.1818 32.2104 31.3C32.2104 31.4182 32.1871 31.5352 32.1419 31.6444C32.0967 31.7536 32.0304 31.8528 31.9468 31.9364C31.8632 32.02 31.764 32.0863 31.6548 32.1315C31.5456 32.1767 31.4286 32.2 31.3104 32.2H29.0804C28.9622 32.2 28.8452 32.1767 28.736 32.1315C28.6268 32.0863 28.5276 32.02 28.444 31.9364C28.3604 31.8528 28.2941 31.7536 28.2489 31.6444C28.2037 31.5352 28.1804 31.4182 28.1804 31.3C28.1804 31.1818 28.2037 31.0648 28.2489 30.9556C28.2941 30.8464 28.3604 30.7472 28.444 30.6636C28.5276 30.58 28.6268 30.5137 28.736 30.4685C28.8452 30.4233 28.9622 30.4 29.0804 30.4ZM26.9604 27.9C26.8414 27.9013 26.7233 27.879 26.6129 27.8344C26.5026 27.7897 26.4022 27.7237 26.3175 27.64C26.2329 27.5563 26.1657 27.4566 26.1199 27.3467C26.074 27.2369 26.0504 27.119 26.0504 27C26.0538 26.8145 26.1249 26.6367 26.2504 26.5H34.3404C34.4729 26.6329 34.5482 26.8123 34.5504 27C34.5504 27.119 34.5268 27.2369 34.481 27.3467C34.4351 27.4566 34.3679 27.5563 34.2833 27.64C34.1986 27.7237 34.0982 27.7897 33.9879 27.8344C33.8775 27.879 33.7594 27.9013 33.6404 27.9H26.9604ZM24.3304 4.8C25.0979 3.97728 26.0269 3.32174 27.0593 2.87437C28.0917 2.42701 29.2053 2.19743 30.3304 2.2H30.4304C32.7187 2.25765 34.8925 3.21272 36.4827 4.8591C38.073 6.50547 38.9521 8.71112 38.9304 11C38.9731 13.0984 38.2191 15.1351 36.8204 16.7C35.1861 18.6952 34.0758 21.067 33.5904 23.6H31.5904V17.6H32.5904C32.9352 17.6 33.2658 17.463 33.5096 17.2192C33.7534 16.9754 33.8904 16.6448 33.8904 16.3C33.8904 15.9552 33.7534 15.6246 33.5096 15.3808C33.2658 15.137 32.9352 15 32.5904 15H31.6804V14.8C31.7527 14.3231 31.995 13.8884 32.3625 13.576C32.73 13.2636 33.1981 13.0945 33.6804 13.1C34.0252 13.1 34.3558 12.963 34.5996 12.7192C34.8434 12.4754 34.9804 12.1448 34.9804 11.8C34.9804 11.4552 34.8434 11.1246 34.5996 10.8808C34.3558 10.637 34.0252 10.5 33.6804 10.5C33.0714 10.4863 32.4666 10.6043 31.9074 10.8459C31.3482 11.0876 30.8478 11.4471 30.4404 11.9C29.5774 11.0388 28.419 10.5382 27.2004 10.5C26.8556 10.5 26.525 10.637 26.2812 10.8808C26.0374 11.1246 25.9004 11.4552 25.9004 11.8C25.9004 12.1448 26.0374 12.4754 26.2812 12.7192C26.525 12.963 26.8556 13.1 27.2004 13.1C27.6789 13.1085 28.1397 13.2825 28.5043 13.5925C28.869 13.9024 29.1149 14.3291 29.2004 14.8V15H28.2804C27.9356 15 27.605 15.137 27.3612 15.3808C27.1174 15.6246 26.9804 15.9552 26.9804 16.3C26.9804 16.6448 27.1174 16.9754 27.3612 17.2192C27.605 17.463 27.9356 17.6 28.2804 17.6H29.2004V23.6H27.2004C26.7246 21.0826 25.6511 18.7162 24.0704 16.7C22.5936 15.0547 21.7986 12.9089 21.8469 10.6986C21.8952 8.48825 22.7832 6.37921 24.3304 4.8ZM7.74041 31.6L27.7404 35.3L21.4704 44.8C20.5604 44.6 5.99041 41.1 3.06041 40.5L7.74041 31.6ZM8.1404 44.2C22.8204 47.7 21.9004 47.4 22.0004 47.5C22.2372 47.5065 22.472 47.4552 22.6845 47.3507C22.8971 47.2461 23.081 47.0915 23.2204 46.9L28.6804 38.6V58.1L8.1404 54.9V44.2ZM51.4404 54.9L31.2104 58.2V38.8L36.3704 46.9C36.5077 47.0913 36.6897 47.2461 36.9007 47.3507C37.1117 47.4553 37.345 47.5065 37.5804 47.5C37.6804 47.5 48.0004 45 51.4404 44.2V54.9ZM37.9904 44.8L31.9204 35.3L51.9204 31.6L56.2704 40.5C54.6804 40.9 37.9904 44.8 37.9904 44.8Z" fill="white"/>
<path d="M50.1305 19.8C50.3494 19.7931 50.5637 19.7352 50.7563 19.6311C50.949 19.5269 51.1148 19.3793 51.2405 19.2C52.5519 17.193 53.2503 14.8474 53.2503 12.45C53.2503 10.0525 52.5519 7.70698 51.2405 5.69999C51.1576 5.55671 51.0462 5.43195 50.9132 5.33345C50.7802 5.23494 50.6284 5.16477 50.4671 5.12728C50.3059 5.08978 50.1387 5.08577 49.9759 5.11547C49.8131 5.14518 49.6581 5.20798 49.5205 5.29998C49.3759 5.3789 49.2494 5.48721 49.1492 5.61796C49.049 5.7487 48.9773 5.89897 48.9387 6.05911C48.9 6.21924 48.8954 6.38569 48.925 6.54773C48.9545 6.70978 49.0177 6.86383 49.1105 6.99998C50.1772 8.59889 50.7465 10.4779 50.7465 12.4C50.7465 14.3221 50.1772 16.2011 49.1105 17.8C48.9994 17.9933 48.9383 18.2112 48.9328 18.4341C48.9272 18.657 48.9773 18.8777 49.0786 19.0763C49.1799 19.2749 49.3292 19.4451 49.5128 19.5715C49.6965 19.6978 49.9088 19.7764 50.1305 19.8Z" fill="white"/>
<path d="M46.5805 17.1999C46.8032 17.2061 47.0237 17.1539 47.2202 17.0487C47.4166 16.9435 47.5822 16.7888 47.7005 16.5999C48.4439 15.3433 48.8362 13.91 48.8362 12.4499C48.8362 10.9898 48.4439 9.55655 47.7005 8.29993C47.5308 8.01378 47.2587 7.80289 46.9393 7.71003C46.6198 7.61718 46.2771 7.64932 45.9805 7.79993C45.6922 7.96242 45.4781 8.23023 45.383 8.54718C45.2879 8.86413 45.3192 9.2056 45.4705 9.49993C45.9912 10.3958 46.2656 11.4137 46.2656 12.4499C46.2656 13.4862 45.9912 14.504 45.4705 15.3999C45.3579 15.5871 45.299 15.8015 45.3002 16.0199C45.3014 16.2383 45.3627 16.4521 45.4773 16.638C45.5919 16.8238 45.7554 16.9746 45.95 17.0737C46.1446 17.1728 46.3627 17.2165 46.5805 17.1999Z" fill="white"/>
<path d="M10.6705 19.7999C10.8969 19.8085 11.1215 19.7563 11.3209 19.6487C11.5204 19.5412 11.6874 19.3823 11.8047 19.1884C11.9221 18.9946 11.9854 18.7729 11.9882 18.5463C11.9909 18.3198 11.933 18.0966 11.8205 17.8999C10.7537 16.301 10.1845 14.422 10.1845 12.4999C10.1845 10.5779 10.7537 8.69884 11.8205 7.09994C11.9147 6.96429 11.9792 6.8102 12.0097 6.64783C12.0401 6.48546 12.0358 6.31849 11.9971 6.1579C11.9584 5.9973 11.8861 5.84673 11.785 5.71609C11.6838 5.58545 11.5562 5.4777 11.4105 5.39994C11.2738 5.30494 11.1188 5.23966 10.9553 5.20832C10.7919 5.17697 10.6237 5.18025 10.4616 5.21794C10.2995 5.25564 10.1472 5.32691 10.0143 5.42716C9.88149 5.52741 9.77116 5.6544 9.69046 5.79994C8.37905 7.80693 7.68066 10.1525 7.68066 12.5499C7.68066 14.9474 8.37905 17.2929 9.69046 19.2999C9.9488 19.5758 10.2955 19.7527 10.6705 19.7999Z" fill="white"/>
<path d="M14.8204 17.1C15.1087 16.9375 15.3229 16.6697 15.4179 16.3527C15.513 16.0358 15.4817 15.6943 15.3304 15.4C14.8067 14.5051 14.5306 13.4869 14.5306 12.45C14.5306 11.4131 14.8067 10.3948 15.3304 9.49996C15.4817 9.20563 15.513 8.86416 15.4179 8.54721C15.3229 8.23026 15.1087 7.96245 14.8204 7.79996C14.5243 7.64688 14.1807 7.61341 13.8606 7.70646C13.5405 7.79952 13.2684 8.01198 13.1004 8.29996C12.3539 9.55552 11.9598 10.9892 11.9598 12.45C11.9598 13.9107 12.3539 15.3444 13.1004 16.6C13.3001 16.8511 13.5728 17.034 13.8809 17.1236C14.189 17.2131 14.5173 17.2049 14.8204 17.1Z" fill="white"/>
</svg>
