<svg width="652" height="452" viewBox="0 0 652 452" fill="none" xmlns="http://www.w3.org/2000/svg">
<path d="M344.084 391.292C349.925 363.791 374.046 315.359 439.746 274.155C490.764 242.158 538.368 217.621 571.869 201.944C597.232 190.075 624.157 182.235 651.521 176.396C653.597 179.89 649.777 191.3 622.869 193.942C589.234 197.245 519.473 336.821 507.016 366.9C499.196 383.579 478.559 414.244 447.979 432.646C437.598 438.893 425.203 440.663 412.8 442.435C400.777 444.152 388.746 445.87 378.535 451.668C376.84 452.631 375.416 451.375 374.836 449.505C372.317 441.396 370.308 428.431 376.213 420.793C377.945 418.552 380.906 413.344 384.901 406.319C401.016 377.975 433.953 320.047 470.889 307.994C472.965 305.07 472.135 300.976 452.203 307.994C428.778 316.243 383.328 341.111 348.986 393.014C347.173 395.755 343.4 394.511 344.084 391.292Z" fill="#3A5544"/>
<path d="M289.773 451.008C268.353 451.629 223.194 446.005 191.844 418.287C169.217 398.283 140.97 352.61 119.596 313.677C113.788 303.1 108.858 291.955 103.933 280.821C94.8689 260.332 85.8212 239.879 71.3542 223.066C55.9214 205.131 32.7998 188.219 0 181.41C22.4233 173.89 94.1778 182.346 201.81 260.554C298.872 331.081 316.779 380.597 313.268 403.122C312.854 405.782 309.612 405.975 308.299 403.629C292.171 374.796 253.522 324.481 201.44 307.028C198.491 306.04 196.323 309.482 198.337 311.862C233.419 353.309 292.749 427.033 292.749 442.099V447.857C292.749 449.553 291.457 450.959 289.773 451.008Z" fill="#3A5544"/>
<path d="M316.47 4.63896L135.798 184.399C131.864 188.313 131.888 194.713 135.852 198.598C139.71 202.378 145.865 202.357 149.698 198.55L316.372 32.9728C322.619 26.7668 332.676 26.804 338.877 33.0559L502.916 198.424C506.87 202.41 513.157 202.804 517.573 199.342C522.855 195.201 523.308 187.329 518.537 182.602L338.885 4.61503C332.665 -1.54765 322.677 -1.53699 316.47 4.63896Z" fill="#3A5544"/>
<path d="M259.477 131.559H323.302V195.773H259.477V131.559Z" fill="#3A5544"/>
<path d="M332.876 131.559H396.702V195.773H332.876V131.559Z" fill="#3A5544"/>
<path d="M332.876 205.405H396.702V269.618H332.876V205.405Z" fill="#3A5544"/>
<path d="M259.477 205.405H323.302V269.618H259.477V205.405Z" fill="#3A5544"/>
</svg>
