<svg width="102" height="100" viewBox="0 0 102 100" fill="none" xmlns="http://www.w3.org/2000/svg">
<path d="M71.49 77.0001H29.41C29.3052 76.9934 29.2062 76.9494 29.131 76.876C29.0558 76.8026 29.0093 76.7048 29 76.6001V51.3001C29.0093 51.1955 29.0558 51.0977 29.131 51.0243C29.2062 50.9509 29.3052 50.9069 29.41 50.9001H71.59C71.6948 50.9069 71.7938 50.9509 71.869 51.0243C71.9442 51.0977 71.9907 51.1955 72 51.3001V76.6001C71.9826 76.7195 71.9199 76.8277 71.825 76.9021C71.73 76.9766 71.6101 77.0117 71.49 77.0001ZM29.81 76.1001H71.09V51.8001H29.81V76.1001Z" fill="black"/>
<path d="M39.63 77.0002H29.41C29.3052 76.9935 29.2062 76.9495 29.131 76.8761C29.0558 76.8027 29.0093 76.7049 29 76.6002V38.4002C29.0093 38.2956 29.0558 38.1978 29.131 38.1244C29.2062 38.051 29.3052 38.007 29.41 38.0002H39.63C39.7338 38.0073 39.8315 38.0517 39.905 38.1252C39.9786 38.1988 40.023 38.2965 40.03 38.4002V76.6002C40.023 76.704 39.9786 76.8017 39.905 76.8753C39.8315 76.9488 39.7338 76.9932 39.63 77.0002ZM29.81 76.1002H39.12V38.9002H29.81V76.1002Z" fill="black"/>
<path d="M39.63 38.9001H29.41C29.3052 38.8934 29.2062 38.8494 29.131 38.776C29.0558 38.7026 29.0093 38.6048 29 38.5001V35.8001C29.0093 35.6955 29.0558 35.5977 29.131 35.5243C29.2062 35.4509 29.3052 35.4069 29.41 35.4001H39.63C39.7338 35.4072 39.8315 35.4516 39.905 35.5251C39.9786 35.5987 40.023 35.6964 40.03 35.8001V38.5001C40.023 38.6039 39.9786 38.7016 39.905 38.7752C39.8315 38.8487 39.7338 38.8931 39.63 38.9001ZM29.81 38.0001H39.12V36.2001H29.81V38.0001Z" fill="black"/>
<path d="M37.2 36.2002H31.87C31.7644 36.1955 31.6643 36.1522 31.5887 36.0784C31.513 36.0046 31.4672 35.9056 31.46 35.8002V33.2002C31.4672 33.0948 31.513 32.9957 31.5887 32.922C31.6643 32.8482 31.7644 32.8048 31.87 32.8002H37.23C37.3337 32.8072 37.4314 32.8516 37.505 32.9251C37.5785 32.9987 37.6229 33.0964 37.63 33.2002V35.8002C37.6224 35.9089 37.5737 36.0107 37.4939 36.085C37.4141 36.1593 37.309 36.2004 37.2 36.2002ZM32.2 35.3002H36.65V33.6002H32.24L32.2 35.3002Z" fill="black"/>
<path d="M71.49 77.0001H29.41C29.3052 76.9934 29.2062 76.9493 29.131 76.876C29.0558 76.8026 29.0093 76.7047 29 76.6001V72.0001C29.0093 71.8955 29.0558 71.7976 29.131 71.7242C29.2062 71.6509 29.3052 71.6068 29.41 71.6001H71.59C71.6948 71.6068 71.7938 71.6509 71.869 71.7242C71.9442 71.7976 71.9907 71.8955 72 72.0001V76.6001C71.9826 76.7195 71.9199 76.8276 71.825 76.9021C71.73 76.9765 71.6101 77.0116 71.49 77.0001ZM29.81 76.1001H71.09V72.4001H29.81V76.1001Z" fill="black"/>
<path d="M45.29 70.4002H41.55C41.4452 70.3935 41.3462 70.3495 41.271 70.2761C41.1958 70.2027 41.1493 70.1049 41.14 70.0002V56.4002C41.1493 56.2956 41.1958 56.1978 41.271 56.1244C41.3462 56.051 41.4452 56.007 41.55 56.0002H45.29C45.3949 56.007 45.4938 56.051 45.569 56.1244C45.6442 56.1978 45.6907 56.2956 45.7 56.4002V70.0002C45.8 70.2002 45.59 70.4002 45.29 70.4002ZM41.95 69.5002H44.78V56.8002H41.95V69.5002Z" fill="black"/>
<path d="M45.29 68.2002H41.55C41.4452 68.1934 41.3462 68.1494 41.271 68.076C41.1958 68.0027 41.1493 67.9048 41.14 67.8002V58.6002C41.1493 58.4956 41.1958 58.3977 41.271 58.3243C41.3462 58.251 41.4452 58.2069 41.55 58.2002H45.29C45.3949 58.2069 45.4938 58.251 45.569 58.3243C45.6442 58.3977 45.6907 58.4956 45.7 58.6002V67.8002C45.8 68.0002 45.59 68.2002 45.29 68.2002ZM41.95 67.3002H44.78V59.0002H41.95V67.3002Z" fill="black"/>
<path d="M51.4601 70.4002H47.7201C47.6152 70.3935 47.5163 70.3495 47.4411 70.2761C47.3659 70.2027 47.3194 70.1049 47.3101 70.0002V56.4002C47.3194 56.2956 47.3659 56.1978 47.4411 56.1244C47.5163 56.051 47.6152 56.007 47.7201 56.0002H51.4601C51.5649 56.007 51.6639 56.051 51.7391 56.1244C51.8143 56.1978 51.8607 56.2956 51.8701 56.4002V70.0002C51.8607 70.1049 51.8143 70.2027 51.7391 70.2761C51.6639 70.3495 51.5649 70.3935 51.4601 70.4002ZM48.1201 69.5002H50.9501V56.8002H48.1201V69.5002Z" fill="black"/>
<path d="M51.4601 68.2002H47.7201C47.6152 68.1934 47.5163 68.1494 47.4411 68.076C47.3659 68.0027 47.3194 67.9048 47.3101 67.8002V58.6002C47.3194 58.4956 47.3659 58.3977 47.4411 58.3243C47.5163 58.251 47.6152 58.2069 47.7201 58.2002H51.4601C51.5649 58.2069 51.6639 58.251 51.7391 58.3243C51.8143 58.3977 51.8607 58.4956 51.8701 58.6002V67.8002C51.8607 67.9048 51.8143 68.0027 51.7391 68.076C51.6639 68.1494 51.5649 68.1934 51.4601 68.2002ZM48.1201 67.3002H50.9501V59.0002H48.1201V67.3002Z" fill="black"/>
<path d="M57.53 70.4002H53.69C53.5845 70.3956 53.4844 70.3522 53.4087 70.2785C53.3331 70.2047 53.2873 70.1056 53.28 70.0002V56.4002C53.2873 56.2948 53.3331 56.1958 53.4087 56.122C53.4844 56.0483 53.5845 56.0049 53.69 56.0002H57.53C57.6349 56.007 57.7338 56.051 57.809 56.1244C57.8842 56.1978 57.9307 56.2956 57.94 56.4002V70.0002C58.04 70.2002 57.87 70.4002 57.53 70.4002ZM54.19 69.5002H57.13V56.8002H54.19V69.5002Z" fill="black"/>
<path d="M57.53 68.2002H53.69C53.5845 68.1955 53.4844 68.1522 53.4087 68.0784C53.3331 68.0046 53.2873 67.9056 53.28 67.8002V58.6002C53.2873 58.4948 53.3331 58.3958 53.4087 58.322C53.4844 58.2482 53.5845 58.2049 53.69 58.2002H57.53C57.6349 58.2069 57.7338 58.251 57.809 58.3243C57.8842 58.3977 57.9307 58.4956 57.94 58.6002V67.8002C58.04 68.0002 57.87 68.2002 57.53 68.2002ZM54.19 67.3002H57.13V59.0002H54.19V67.3002Z" fill="black"/>
<path d="M63.7 70.4002H59.87C59.7651 70.3935 59.6662 70.3495 59.591 70.2761C59.5158 70.2027 59.4693 70.1049 59.46 70.0002V56.4002C59.4693 56.2956 59.5158 56.1978 59.591 56.1244C59.6662 56.051 59.7651 56.007 59.87 56.0002H63.71C63.8148 56.007 63.9138 56.051 63.989 56.1244C64.0642 56.1978 64.1106 56.2956 64.12 56.4002V70.0002C64.1104 70.1065 64.0625 70.2057 63.9852 70.2792C63.9079 70.3528 63.8066 70.3958 63.7 70.4002ZM60.36 69.5002H63.3V56.8002H60.36V69.5002Z" fill="black"/>
<path d="M63.7 68.2002H59.87C59.7651 68.1934 59.6662 68.1494 59.591 68.076C59.5158 68.0027 59.4693 67.9048 59.46 67.8002V58.6002C59.4693 58.4956 59.5158 58.3977 59.591 58.3243C59.6662 58.251 59.7651 58.2069 59.87 58.2002H63.71C63.8148 58.2069 63.9138 58.251 63.989 58.3243C64.0642 58.3977 64.1106 58.4956 64.12 58.6002V67.8002C64.1104 67.9065 64.0625 68.0056 63.9852 68.0792C63.9079 68.1528 63.8066 68.1958 63.7 68.2002ZM60.36 67.3002H63.3V59.0002H60.36V67.3002Z" fill="black"/>
<path d="M69.77 70.4002H66.03C65.9245 70.3956 65.8243 70.3522 65.7487 70.2785C65.6731 70.2047 65.6273 70.1056 65.62 70.0002V56.4002C65.6273 56.2948 65.6731 56.1958 65.7487 56.122C65.8243 56.0483 65.9245 56.0049 66.03 56.0002H69.77C69.8748 56.007 69.9738 56.051 70.049 56.1244C70.1242 56.1978 70.1707 56.2956 70.18 56.4002V70.0002C70.28 70.2002 70.07 70.4002 69.77 70.4002ZM66.43 69.5002H69.37V56.8002H66.43V69.5002Z" fill="black"/>
<path d="M69.77 68.2002H66.03C65.9245 68.1955 65.8243 68.1522 65.7487 68.0784C65.6731 68.0046 65.6273 67.9056 65.62 67.8002V58.6002C65.6273 58.4948 65.6731 58.3958 65.7487 58.322C65.8243 58.2482 65.9245 58.2049 66.03 58.2002H69.77C69.8748 58.2069 69.9738 58.251 70.049 58.3243C70.1242 58.3977 70.1707 58.4956 70.18 58.6002V67.8002C70.28 68.0002 70.07 68.2002 69.77 68.2002ZM66.43 67.3002H69.37V59.0002H66.43V67.3002Z" fill="black"/>
<path d="M34.87 32.3002C34.2866 32.3002 33.727 32.0684 33.3144 31.6558C32.9018 31.2432 32.67 30.6836 32.67 30.1002C32.67 29.5167 32.9018 28.9571 33.3144 28.5445C33.727 28.132 34.2866 27.9002 34.87 27.9002H35.07V27.8002C35.0949 27.0574 35.3832 26.3478 35.8833 25.7981C36.3835 25.2485 37.0629 24.8947 37.8 24.8002H38.01V24.7002C38.01 24.3431 38.0808 23.9895 38.2184 23.6599C38.356 23.3304 38.5575 23.0314 38.8114 22.7803C39.0653 22.5292 39.3665 22.3309 39.6976 22.197C40.0286 22.0631 40.383 21.9962 40.74 22.0002C41.324 21.9939 41.8946 22.1751 42.3679 22.5171C42.8413 22.8591 43.1925 23.3438 43.37 23.9002H43.98C44.1258 23.4558 44.4106 23.0701 44.7923 22.8C45.1741 22.5299 45.6325 22.3897 46.1 22.4002C46.6835 22.4002 47.2431 22.632 47.6557 23.0445C48.0683 23.4571 48.3 24.0167 48.3 24.6002C48.3 25.1836 48.0683 25.7432 47.6557 26.1558C47.2431 26.5684 46.6835 26.8002 46.1 26.8002H45.8C45.7246 27.0643 45.5835 27.3051 45.39 27.5002V27.6002C45.3822 28.1847 45.1451 28.7427 44.7299 29.1542C44.3147 29.5656 43.7546 29.7976 43.17 29.8002H42.87C42.7243 30.2445 42.4395 30.6302 42.0578 30.9003C41.676 31.1704 41.2176 31.3106 40.75 31.3002C40.3888 31.2911 40.0351 31.1956 39.7184 31.0216C39.4017 30.8476 39.1314 30.6002 38.93 30.3002C38.3237 30.5813 37.6322 30.6171 37 30.4002C36.9389 30.9226 36.6883 31.4045 36.2958 31.7546C35.9033 32.1047 35.396 32.2988 34.87 32.3002ZM34.87 28.9002C34.6138 28.9041 34.3645 28.9837 34.1533 29.1289C33.9422 29.2741 33.7787 29.4785 33.6834 29.7164C33.588 29.9542 33.5651 30.215 33.6175 30.4658C33.6699 30.7167 33.7953 30.9464 33.9778 31.1262C34.1604 31.3061 34.3921 31.4279 34.6437 31.4765C34.8953 31.525 35.1557 31.4981 35.392 31.3992C35.6284 31.3002 35.8303 31.1336 35.9723 30.9203C36.1142 30.707 36.19 30.4564 36.19 30.2002V30.0002C36.19 29.8002 36.19 29.6002 36.39 29.5002C36.464 29.4507 36.551 29.4243 36.64 29.4243C36.729 29.4243 36.816 29.4507 36.89 29.5002C37.1909 29.6869 37.536 29.7905 37.89 29.8002C38.2462 29.8049 38.5953 29.7002 38.89 29.5002C39.0074 29.4206 39.1491 29.3852 39.29 29.4002C39.39 29.4002 39.49 29.5002 39.6 29.7002C39.7179 29.9663 39.9205 30.186 40.1762 30.3251C40.4319 30.4642 40.7264 30.5148 41.0139 30.4692C41.3013 30.4236 41.5657 30.2842 41.7657 30.0728C41.9658 29.8614 42.0904 29.5897 42.12 29.3002C42.1491 29.149 42.2221 29.0099 42.33 28.9002C42.385 28.851 42.4563 28.8238 42.53 28.8238C42.6038 28.8238 42.675 28.851 42.73 28.9002C42.8836 28.9908 43.0636 29.0261 43.24 29.0002C43.5842 28.9951 43.9129 28.8568 44.1572 28.6144C44.4015 28.3719 44.5423 28.0442 44.55 27.7002V27.5002C44.55 27.3002 44.55 27.2002 44.65 27.1002C44.7765 26.9863 44.8781 26.8476 44.9487 26.6928C45.0192 26.538 45.0571 26.3703 45.06 26.2002C45.0851 26.0498 45.1548 25.9104 45.26 25.8002C45.3176 25.7522 45.3901 25.7259 45.465 25.7259C45.54 25.7259 45.6125 25.7522 45.67 25.8002C45.8199 25.8909 45.9968 25.9263 46.17 25.9002C46.5148 25.9002 46.8455 25.7632 47.0893 25.5194C47.3331 25.2756 47.47 24.9449 47.47 24.6002C47.47 24.2554 47.3331 23.9247 47.0893 23.6809C46.8455 23.4371 46.5148 23.3002 46.17 23.3002C45.8426 23.3015 45.5275 23.4254 45.2869 23.6476C45.0462 23.8697 44.8975 24.1739 44.87 24.5002C44.841 24.6513 44.768 24.7905 44.66 24.9002C44.605 24.9494 44.5338 24.9766 44.46 24.9766C44.3863 24.9766 44.315 24.9494 44.26 24.9002C44.1002 24.8273 43.9255 24.7931 43.75 24.8002C43.5778 24.7935 43.4065 24.8278 43.25 24.9002H42.87C42.77 24.8002 42.67 24.7002 42.67 24.6002C42.6124 24.1617 42.3987 23.7586 42.0682 23.4648C41.7376 23.1709 41.3123 23.006 40.87 23.0002C40.632 22.9975 40.3958 23.0421 40.1751 23.1314C39.9544 23.2207 39.7536 23.3528 39.5843 23.5203C39.415 23.6877 39.2807 23.887 39.1889 24.1067C39.0972 24.3264 39.05 24.5621 39.05 24.8002C39.0343 25.0053 39.0686 25.2112 39.15 25.4002C39.1874 25.4836 39.1978 25.5765 39.1799 25.6661C39.1619 25.7557 39.1166 25.8375 39.05 25.9002C38.8965 25.9908 38.7165 26.0261 38.54 26.0002C38.3511 25.9187 38.1452 25.8844 37.94 25.9002C37.4435 25.9939 36.993 26.252 36.661 26.6329C36.329 27.0139 36.135 27.4955 36.11 28.0002C36.11 28.2002 36.11 28.4002 36.22 28.5002C36.2577 28.5843 36.2674 28.6783 36.2476 28.7683C36.2278 28.8583 36.1796 28.9396 36.11 29.0002C35.9602 29.0909 35.7833 29.1263 35.61 29.1002C35.3746 28.9973 35.1252 28.9299 34.87 28.9002Z" fill="black"/>
<path d="M31.2299 72.4002C31.1251 72.3935 31.0261 72.3494 30.9509 72.276C30.8757 72.2027 30.8293 72.1048 30.8199 72.0002V53.6002C30.8293 53.4956 30.8757 53.3977 30.9509 53.3243C31.0261 53.251 31.1251 53.2069 31.2299 53.2002C31.3337 53.2072 31.4314 53.2516 31.505 53.3252C31.5785 53.3987 31.6229 53.4964 31.6299 53.6002V71.9002C31.6413 72.0192 31.6059 72.1379 31.5312 72.2312C31.4566 72.3245 31.3485 72.3852 31.2299 72.4002Z" fill="black"/>
<path d="M32.95 72.4002C32.8452 72.3935 32.7462 72.3494 32.671 72.276C32.5958 72.2027 32.5494 72.1048 32.54 72.0002V53.6002C32.5494 53.4956 32.5958 53.3977 32.671 53.3243C32.7462 53.251 32.8452 53.2069 32.95 53.2002C33.0538 53.2072 33.1515 53.2516 33.2251 53.3252C33.2986 53.3987 33.343 53.4964 33.35 53.6002V71.9002C33.3614 72.0192 33.326 72.1379 33.2513 72.2312C33.1767 72.3245 33.0686 72.3852 32.95 72.4002Z" fill="black"/>
<path d="M71.49 74.3001H42.56C42.4539 74.3001 42.3522 74.258 42.2772 74.183C42.2022 74.1079 42.16 74.0062 42.16 73.9001C42.16 73.794 42.2022 73.6923 42.2772 73.6173C42.3522 73.5423 42.4539 73.5001 42.56 73.5001H71.49C71.5949 73.5069 71.6938 73.5509 71.769 73.6243C71.8442 73.6976 71.8907 73.7955 71.9 73.9001C71.9048 73.9547 71.8974 74.0097 71.8784 74.0611C71.8593 74.1125 71.8291 74.159 71.7898 74.1973C71.7506 74.2356 71.7033 74.2646 71.6515 74.2824C71.5996 74.3002 71.5445 74.3063 71.49 74.3001Z" fill="black"/>
<path d="M63.7999 51.8001H43.9799C43.8744 51.7954 43.7743 51.7521 43.6986 51.6783C43.623 51.6045 43.5772 51.5055 43.5699 51.4001V45.3001C43.5699 45.1001 43.6699 44.9001 43.8699 44.9001L51.3599 42.7001V40.3001C51.3599 40.1001 51.4599 39.9001 51.6599 39.9001L63.5999 35.4001C63.7409 35.3851 63.8826 35.4205 63.9999 35.5001C64.0639 35.5456 64.1162 35.6055 64.1527 35.675C64.1892 35.7445 64.2088 35.8216 64.2099 35.9001V51.4001C64.2006 51.5047 64.1541 51.6026 64.0789 51.6759C64.0037 51.7493 63.9048 51.7933 63.7999 51.8001ZM44.4799 50.9001H63.2999V36.5001L52.1699 40.4001V42.8001C52.1699 43.0001 52.0699 43.2001 51.8699 43.2001L44.3799 45.4001V50.9001H44.4799Z" fill="black"/>
<path d="M61.78 43.9002H58.54C58.4362 43.8932 58.3385 43.8488 58.265 43.7752C58.1914 43.7017 58.147 43.604 58.14 43.5002V42.1002C58.147 41.9964 58.1914 41.8987 58.265 41.8252C58.3385 41.7516 58.4362 41.7072 58.54 41.7002H61.78C61.8838 41.7072 61.9815 41.7516 62.055 41.8252C62.1286 41.8987 62.173 41.9964 62.18 42.1002V43.5002C62.28 43.7002 62.08 43.9002 61.78 43.9002ZM59.05 43.0002H61.37V42.5002H59.05V43.0002Z" fill="black"/>
<path d="M61.78 46.9002H58.54C58.4362 46.8932 58.3385 46.8488 58.265 46.7752C58.1914 46.7017 58.147 46.604 58.14 46.5002V45.1002C58.147 44.9964 58.1914 44.8987 58.265 44.8252C58.3385 44.7516 58.4362 44.7072 58.54 44.7002H61.78C61.8838 44.7072 61.9815 44.7516 62.055 44.8252C62.1286 44.8987 62.173 44.9964 62.18 45.1002V46.5002C62.28 46.7002 62.08 46.9002 61.78 46.9002ZM59.05 46.0002H61.37V45.5002H59.05V46.0002Z" fill="black"/>
<path d="M61.78 49.9002H58.54C58.4362 49.8932 58.3385 49.8488 58.265 49.7752C58.1914 49.7017 58.147 49.604 58.14 49.5002V48.1002C58.147 47.9964 58.1914 47.8987 58.265 47.8252C58.3385 47.7516 58.4362 47.7072 58.54 47.7002H61.78C61.8838 47.7072 61.9815 47.7516 62.055 47.8252C62.1286 47.8987 62.173 47.9964 62.18 48.1002V49.5002C62.28 49.7002 62.08 49.9002 61.78 49.9002ZM59.05 49.0002H61.37V48.5002H59.05V49.0002Z" fill="black"/>
<path d="M56.92 43.9002H53.69C53.5845 43.8955 53.4844 43.8522 53.4087 43.7784C53.3331 43.7046 53.2873 43.6056 53.28 43.5002V42.1002C53.2873 41.9948 53.3331 41.8958 53.4087 41.822C53.4844 41.7482 53.5845 41.7049 53.69 41.7002H56.92C57.0256 41.7049 57.1257 41.7482 57.2013 41.822C57.2769 41.8958 57.3228 41.9948 57.33 42.1002V43.5002C57.43 43.7002 57.23 43.9002 56.92 43.9002ZM54.19 43.0002H56.52V42.5002H54.19V43.0002Z" fill="black"/>
<path d="M56.92 46.9002H53.69C53.5845 46.8955 53.4844 46.8522 53.4087 46.7784C53.3331 46.7046 53.2873 46.6056 53.28 46.5002V45.1002C53.2873 44.9948 53.3331 44.8958 53.4087 44.822C53.4844 44.7482 53.5845 44.7049 53.69 44.7002H56.92C57.0256 44.7049 57.1257 44.7482 57.2013 44.822C57.2769 44.8958 57.3228 44.9948 57.33 45.1002V46.5002C57.43 46.7002 57.23 46.9002 56.92 46.9002ZM54.19 46.0002H56.52V45.5002H54.19V46.0002Z" fill="black"/>
<path d="M56.92 49.9002H53.69C53.5845 49.8955 53.4844 49.8522 53.4087 49.7784C53.3331 49.7046 53.2873 49.6056 53.28 49.5002V48.1002C53.2873 47.9948 53.3331 47.8958 53.4087 47.822C53.4844 47.7482 53.5845 47.7049 53.69 47.7002H56.92C57.0256 47.7049 57.1257 47.7482 57.2013 47.822C57.2769 47.8958 57.3228 47.9948 57.33 48.1002V49.5002C57.43 49.7002 57.23 49.9002 56.92 49.9002ZM54.19 49.0002H56.52V48.5002H54.19V49.0002Z" fill="black"/>
<path d="M51.4599 46.9002H48.2199C48.1162 46.8932 48.0185 46.8488 47.9449 46.7752C47.8714 46.7017 47.827 46.604 47.8199 46.5002V45.1002C47.827 44.9964 47.8714 44.8987 47.9449 44.8252C48.0185 44.7516 48.1162 44.7072 48.2199 44.7002H51.4599C51.5648 44.7069 51.6638 44.751 51.7389 44.8243C51.8141 44.8977 51.8606 44.9956 51.8699 45.1002V46.5002C51.9699 46.7002 51.7599 46.9002 51.4599 46.9002ZM48.7299 46.0002H51.0599V45.5002H48.7299V46.0002Z" fill="black"/>
<path d="M51.4599 49.9002H48.2199C48.1162 49.8932 48.0185 49.8488 47.9449 49.7752C47.8714 49.7017 47.827 49.604 47.8199 49.5002V48.1002C47.827 47.9964 47.8714 47.8987 47.9449 47.8252C48.0185 47.7516 48.1162 47.7072 48.2199 47.7002H51.4599C51.5648 47.7069 51.6638 47.751 51.7389 47.8243C51.8141 47.8977 51.8606 47.9956 51.8699 48.1002V49.5002C51.9699 49.7002 51.7599 49.9002 51.4599 49.9002ZM48.7299 49.0002H51.0599V48.5002H48.7299V49.0002Z" fill="black"/>
<path d="M58.04 30.1001C57.6426 30.0926 57.2633 29.9328 56.9804 29.6536C56.6976 29.3745 56.5327 28.9973 56.52 28.6001C56.5146 28.4083 56.5472 28.2174 56.6156 28.0383C56.6841 27.8591 56.7873 27.6952 56.9191 27.5558C57.051 27.4165 57.209 27.3046 57.3842 27.2264C57.5594 27.1482 57.7482 27.1053 57.94 27.1001C57.981 26.6498 58.1734 26.2267 58.4857 25.8998C58.7981 25.5729 59.212 25.3615 59.66 25.3001C59.7137 24.8474 59.926 24.4284 60.2591 24.1173C60.5922 23.8061 61.0247 23.6229 61.48 23.6001C61.8534 23.6066 62.2165 23.7242 62.5228 23.938C62.8292 24.1517 63.0649 24.4518 63.2 24.8001H63.3C63.4272 24.5332 63.6268 24.3073 63.8761 24.1482C64.1254 23.9891 64.4143 23.9031 64.71 23.9001C65.1078 23.9001 65.4893 24.0581 65.7706 24.3394C66.0519 24.6207 66.21 25.0023 66.21 25.4001C66.21 25.7979 66.0519 26.1795 65.7706 26.4608C65.4893 26.7421 65.1078 26.9001 64.71 26.9001H64.61C64.61 27.0001 64.51 27.1001 64.41 27.2001C64.397 27.6007 64.2294 27.9808 63.9423 28.2605C63.6551 28.5402 63.2708 28.6977 62.87 28.7001H62.77C62.6999 28.9649 62.5421 29.1982 62.3223 29.3616C62.1025 29.5251 61.8338 29.6092 61.56 29.6001C61.3374 29.6052 61.1172 29.5527 60.921 29.4476C60.7247 29.3424 60.559 29.1883 60.44 29.0001C60.1142 29.0872 59.7765 29.121 59.44 29.1001C59.3482 29.397 59.1615 29.6556 58.9087 29.8363C58.6558 30.0169 58.3506 30.1096 58.04 30.1001ZM58.04 28.1001C57.9213 28.1001 57.8053 28.1353 57.7066 28.2012C57.608 28.2671 57.5311 28.3609 57.4856 28.4705C57.4402 28.5801 57.4283 28.7008 57.4515 28.8172C57.4746 28.9335 57.5318 29.0404 57.6157 29.1244C57.6996 29.2083 57.8065 29.2654 57.9229 29.2886C58.0393 29.3117 58.1599 29.2998 58.2696 29.2544C58.3792 29.209 58.4729 29.1321 58.5389 29.0334C58.6048 28.9348 58.64 28.8188 58.64 28.7001V28.6001C58.64 28.4001 58.64 28.3001 58.85 28.2001C58.7744 28.2504 58.6857 28.2772 58.595 28.2772C58.5042 28.2772 58.4155 28.2504 58.34 28.2001C58.3005 28.1623 58.2531 28.1337 58.2012 28.1164C58.1493 28.0991 58.0943 28.0936 58.04 28.1001ZM60.67 28.0001H60.77C60.87 28.0001 60.97 28.1001 61.07 28.3001C61.1134 28.405 61.1831 28.4969 61.2725 28.567C61.3618 28.6371 61.4677 28.6829 61.58 28.7001C61.7254 28.7113 61.8695 28.6653 61.9815 28.572C62.0936 28.4786 62.1648 28.3452 62.18 28.2001C62.18 28.1001 62.28 27.9001 62.39 27.9001C62.445 27.8509 62.5162 27.8237 62.59 27.8237C62.6638 27.8237 62.735 27.8509 62.79 27.9001H62.99C63.147 27.8909 63.2954 27.825 63.4076 27.7146C63.5198 27.6043 63.5881 27.457 63.6 27.3001V27.2001C63.585 27.0591 63.6204 26.9174 63.7 26.8001C63.761 26.7525 63.8106 26.6919 63.8452 26.6227C63.8798 26.5535 63.8985 26.4774 63.9 26.4001C63.9 26.3001 64 26.1001 64.11 26.1001C64.165 26.0509 64.2362 26.0237 64.31 26.0237C64.3838 26.0237 64.455 26.0509 64.51 26.1001H64.71C64.8691 26.1001 65.0217 26.0369 65.1342 25.9244C65.2468 25.8118 65.31 25.6592 65.31 25.5001C65.31 25.341 65.2468 25.1884 65.1342 25.0758C65.0217 24.9633 64.8691 24.9001 64.71 24.9001C64.5645 24.8889 64.4205 24.9349 64.3084 25.0282C64.1964 25.1216 64.1252 25.255 64.11 25.4001C64.081 25.5512 64.0079 25.6904 63.9 25.8001C63.845 25.8493 63.7738 25.8765 63.7 25.8765C63.6262 25.8765 63.555 25.8493 63.5 25.8001H63.09C62.99 25.9001 62.79 25.8001 62.69 25.8001C62.59 25.8001 62.49 25.6001 62.49 25.5001C62.4974 25.3791 62.4789 25.2579 62.4357 25.1447C62.3924 25.0314 62.3255 24.9287 62.2393 24.8435C62.1531 24.7583 62.0497 24.6925 61.936 24.6505C61.8222 24.6085 61.7009 24.5913 61.58 24.6001C61.4609 24.5988 61.3428 24.6211 61.2325 24.6657C61.1221 24.7104 61.0217 24.7764 60.9371 24.8601C60.8525 24.9438 60.7853 25.0435 60.7394 25.1534C60.6936 25.2632 60.67 25.3811 60.67 25.5001V25.8001C60.7073 25.8835 60.7177 25.9765 60.6998 26.0661C60.6819 26.1557 60.6365 26.2375 60.57 26.3001C60.4944 26.3504 60.4057 26.3772 60.315 26.3772C60.2242 26.3772 60.1355 26.3504 60.06 26.3001C59.9842 26.2895 59.9139 26.2544 59.86 26.2001C59.45 26.2001 58.95 26.8001 58.95 27.3001V27.6001C58.9873 27.6835 58.9977 27.7765 58.9798 27.8661C58.9619 27.9557 58.9165 28.0375 58.85 28.1001C58.924 28.0507 59.011 28.0243 59.1 28.0243C59.189 28.0243 59.276 28.0507 59.35 28.1001C59.4907 28.2255 59.6716 28.2964 59.86 28.3001C60.0332 28.3262 60.2101 28.2908 60.36 28.2001C60.3804 28.136 60.4225 28.0809 60.4791 28.0444C60.5356 28.008 60.6031 27.9923 60.67 28.0001Z" fill="black"/>
<path d="M55.51 39.2002C55.4542 39.2068 55.3976 39.2013 55.3441 39.1841C55.2906 39.1668 55.2414 39.1382 55.2 39.1002C55.139 39.0526 55.0894 38.992 55.0548 38.9228C55.0202 38.8536 55.0015 38.7775 55 38.7002L55.71 30.7002C55.717 30.5964 55.7614 30.4987 55.835 30.4251C55.9085 30.3516 56.0062 30.3072 56.11 30.3002H59.55C59.6555 30.3048 59.7557 30.3482 59.8313 30.422C59.9069 30.4957 59.9527 30.5948 59.96 30.7002L60.67 37.1002C60.6722 37.2046 60.6441 37.3073 60.5891 37.3961C60.534 37.4848 60.4545 37.5557 60.36 37.6002L55.71 39.2002H55.51ZM56.62 31.2002L56.01 38.1002L59.66 36.8002L59.05 31.2002H56.62Z" fill="black"/>
</svg>
