<svg width="700" height="486" viewBox="0 0 700 486" fill="none" xmlns="http://www.w3.org/2000/svg">
<path d="M369.416 420.725C375.686 391.156 401.583 339.081 472.12 294.777C526.894 260.373 578.003 233.99 613.97 217.134C641.2 204.372 670.107 195.943 699.486 189.664C701.715 193.422 697.613 205.69 668.725 208.531C632.613 212.082 557.716 362.157 544.342 394.499C535.946 412.432 513.79 445.404 480.959 465.19C469.814 471.907 456.507 473.81 443.19 475.715C430.282 477.561 417.366 479.409 406.403 485.643C404.583 486.678 403.054 485.328 402.431 483.318C399.727 474.598 397.57 460.658 403.91 452.446C405.769 450.036 408.948 444.437 413.237 436.882C430.539 406.407 465.9 344.121 505.556 331.162C507.785 328.018 506.893 323.615 485.494 331.162C460.344 340.031 411.549 366.769 374.679 422.577C372.732 425.524 368.682 424.187 369.416 420.725Z" fill="#FFF5E0"/>
<path d="M311.105 484.934C288.109 485.601 239.625 479.554 205.967 449.751C181.675 428.242 151.348 379.134 128.4 337.273C122.165 325.899 116.872 313.916 111.584 301.945C101.853 279.914 92.1394 257.923 76.6073 239.845C60.0384 220.561 35.2145 202.377 0 195.056C24.0741 186.97 101.111 196.063 216.667 280.153C320.875 355.985 340.1 409.226 336.331 433.446C335.886 436.305 332.405 436.513 330.996 433.991C313.681 402.989 272.186 348.889 216.269 330.123C213.104 329.061 210.776 332.761 212.939 335.321C250.604 379.885 314.301 459.155 314.301 475.354V481.546C314.301 483.369 312.914 484.881 311.105 484.934Z" fill="#FFF5E0"/>
<path d="M339.768 4.98791L145.796 198.269C141.572 202.478 141.598 209.36 145.853 213.536C149.995 217.601 156.604 217.579 160.718 213.485L339.663 35.453C346.37 28.7803 357.167 28.8202 363.825 35.5424L539.94 213.35C544.185 217.635 550.936 218.059 555.676 214.337C561.347 209.885 561.834 201.421 556.711 196.338L363.834 4.96218C357.156 -1.66407 346.432 -1.6526 339.768 4.98791Z" fill="#FFF5E0"/>
<path d="M278.58 141.455H347.104V210.499H278.58V141.455Z" fill="#FFF5E0"/>
<path d="M357.382 141.455H425.907V210.499H357.382V141.455Z" fill="#FFF5E0"/>
<path d="M357.382 220.855H425.907V289.899H357.382V220.855Z" fill="#FFF5E0"/>
<path d="M278.58 220.855H347.104V289.899H278.58V220.855Z" fill="#FFF5E0"/>
</svg>
