<svg width="102" height="100" viewBox="0 0 102 100" fill="none" xmlns="http://www.w3.org/2000/svg">
<path d="M34.0001 53.5C33.8591 53.515 33.7174 53.4795 33.6001 53.4C33.3779 53.3494 33.1686 53.2536 32.9851 53.1186C32.8016 52.9836 32.6478 52.8123 32.5334 52.6153C32.4189 52.4183 32.3462 52.1999 32.3199 51.9736C32.2935 51.7473 32.314 51.518 32.3801 51.3L37.8401 31.3C37.8471 31.2211 37.8823 31.1474 37.9393 31.0923C37.9962 31.0373 38.071 31.0045 38.1501 31C38.3501 31 38.4501 31 38.5501 31.1C38.7913 31.4014 39.0951 31.6468 39.4403 31.8195C39.7856 31.9921 40.1642 32.0878 40.5501 32.1C40.6601 32.1 40.8601 32.2 40.8601 32.3C40.8601 32.4 40.9601 32.5 40.9601 32.7L35.7101 52.2C35.5883 52.5632 35.3601 52.8813 35.0551 53.1132C34.7502 53.345 34.3826 53.4798 34.0001 53.5ZM38.3501 32.3L33.0801 51.6C33.0504 51.7058 33.0428 51.8166 33.0578 51.9255C33.0728 52.0344 33.1101 52.139 33.1673 52.2328C33.2246 52.3266 33.3005 52.4077 33.3905 52.4708C33.4804 52.534 33.5824 52.578 33.6901 52.6C33.7952 52.6283 33.9049 52.6352 34.0127 52.6201C34.1205 52.6051 34.2242 52.5685 34.3175 52.5125C34.4109 52.4565 34.492 52.3822 34.556 52.2942C34.62 52.2061 34.6656 52.1061 34.6901 52L40.0001 33C39.4067 32.8761 38.843 32.6384 38.3401 32.3H38.3501Z" fill="black"/>
<path d="M47.34 53.5C46.9489 53.5082 46.5665 53.3844 46.2544 53.1485C45.9424 52.9127 45.7189 52.5785 45.62 52.2L40.36 32.7C40.3451 32.5591 40.3805 32.4174 40.46 32.3C40.56 32.2 40.67 32.1 40.77 32.1C41.1561 32.0892 41.5352 31.9941 41.8807 31.8213C42.2262 31.6486 42.5297 31.4024 42.77 31.1C42.8343 31.0327 42.9178 30.9869 43.0091 30.969C43.1005 30.9511 43.1951 30.9619 43.28 31C43.48 31 43.58 31.2 43.58 31.4L49.04 51.4C49.1055 51.618 49.1215 51.8477 49.0869 52.0726C49.0523 52.2975 48.9679 52.5119 48.84 52.7C48.737 52.8947 48.595 53.0661 48.423 53.2038C48.251 53.3414 48.0526 53.4422 47.84 53.5H47.34ZM41.34 33L46.5 52C46.5684 52.2025 46.7065 52.374 46.8897 52.4839C47.0729 52.5938 47.2893 52.635 47.5 52.6C47.7097 52.527 47.8892 52.3863 48.01 52.2C48.0915 52.0111 48.1258 51.8052 48.11 51.6L42.89 32.3C42.4242 32.6135 41.911 32.8498 41.37 33H41.34Z" fill="black"/>
<path d="M40.67 33C39.6755 33 38.7217 32.6049 38.0184 31.9017C37.3151 31.1984 36.92 30.2446 36.92 29.25C36.92 28.2554 37.3151 27.3016 38.0184 26.5983C38.7217 25.8951 39.6755 25.5 40.67 25.5C41.6646 25.5 42.6184 25.8951 43.3217 26.5983C44.025 27.3016 44.42 28.2554 44.42 29.25C44.42 30.2446 44.025 31.1984 43.3217 31.9017C42.6184 32.6049 41.6646 33 40.67 33ZM40.67 26.4C40.2997 26.3974 39.9325 26.4677 39.5893 26.607C39.2462 26.7463 38.9338 26.9518 38.6701 27.2118C38.4064 27.4718 38.1965 27.7812 38.0523 28.1223C37.9082 28.4635 37.8327 28.8297 37.83 29.2C37.8069 29.5932 37.8643 29.9869 37.9988 30.357C38.1334 30.7272 38.3421 31.0659 38.6123 31.3525C38.8825 31.639 39.2083 31.8673 39.5699 32.0234C39.9315 32.1794 40.3212 32.2599 40.715 32.2599C41.1089 32.2599 41.4986 32.1794 41.8601 32.0234C42.2217 31.8673 42.5476 31.639 42.8178 31.3525C43.088 31.0659 43.2967 30.7272 43.4312 30.357C43.5658 29.9869 43.6232 29.5932 43.6 29.2C43.5502 28.4515 43.2217 27.7487 42.6793 27.2304C42.137 26.7121 41.4201 26.4158 40.67 26.4Z" fill="black"/>
<path d="M40.67 31.3C40.2745 31.3 39.8878 31.1828 39.5589 30.963C39.23 30.7432 38.9737 30.4309 38.8223 30.0654C38.6709 29.7 38.6313 29.2978 38.7085 28.9099C38.7856 28.5219 38.9761 28.1655 39.2558 27.8858C39.5355 27.6061 39.8919 27.4156 40.2799 27.3385C40.6678 27.2613 41.07 27.3009 41.4354 27.4523C41.8009 27.6037 42.1132 27.86 42.333 28.1889C42.5527 28.5178 42.67 28.9045 42.67 29.3001C42.67 29.8305 42.4593 30.3392 42.0843 30.7143C41.7092 31.0893 41.2005 31.3 40.67 31.3ZM40.67 28.2001C40.4529 28.202 40.2412 28.2682 40.0617 28.3903C39.8821 28.5123 39.7427 28.6848 39.6609 28.886C39.5792 29.0871 39.5588 29.308 39.6024 29.5207C39.646 29.7334 39.7515 29.9285 39.9058 30.0813C40.06 30.2342 40.256 30.3379 40.4691 30.3796C40.6822 30.4212 40.9029 30.3989 41.1033 30.3153C41.3037 30.2318 41.4749 30.0908 41.5953 29.9101C41.7158 29.7295 41.78 29.5172 41.78 29.3001C41.7748 29.0082 41.6559 28.7299 41.4486 28.5245C41.2413 28.319 40.9619 28.2026 40.67 28.2001Z" fill="black"/>
<path d="M41.5801 26.6H41.4801C41.2527 26.5186 41.0111 26.4846 40.7701 26.5C40.5288 26.4759 40.2853 26.5102 40.0601 26.6C39.916 26.614 39.7715 26.5788 39.6501 26.5C39.5891 26.4524 39.5395 26.3918 39.5049 26.3226C39.4703 26.2534 39.4516 26.1774 39.4501 26.1V23.9C39.4788 23.5711 39.6298 23.2648 39.8732 23.0417C40.1166 22.8186 40.4349 22.6948 40.7651 22.6948C41.0953 22.6948 41.4135 22.8186 41.6569 23.0417C41.9004 23.2648 42.0514 23.5711 42.0801 23.9V26.1C42.055 26.2504 41.9853 26.3898 41.8801 26.5C41.7801 26.5 41.6801 26.6 41.5801 26.6ZM40.6701 25.5H41.0701V23.9C41.0549 23.8036 41.0057 23.7157 40.9315 23.6522C40.8572 23.5887 40.7627 23.5539 40.6651 23.5539C40.5674 23.5539 40.4729 23.5887 40.3987 23.6522C40.3244 23.7157 40.2753 23.8036 40.2601 23.9V25.5H40.6701Z" fill="black"/>
<path d="M32.7801 56.5001H32.6701C32.4701 56.4001 32.2701 56.2001 32.3701 56.0001L33.1801 53.0001C33.2801 52.8001 33.4801 52.6001 33.6901 52.7001C33.9001 52.8001 34.0901 53.0001 33.9901 53.2001L33.1801 56.2001C33.1801 56.4001 33.0001 56.5001 32.7801 56.5001Z" fill="black"/>
<path d="M48.5601 56.5001C48.3501 56.5001 48.1501 56.4001 48.1501 56.2001L47.3401 53.2001C47.2401 53.0001 47.4401 52.7001 47.6501 52.6001C47.8601 52.5001 48.1501 52.7001 48.2501 52.9001L49.0601 55.9001C49.1601 56.1001 48.9601 56.4001 48.7601 56.5001H48.5601Z" fill="black"/>
<path d="M41.6801 49.0001H39.8601C39.7545 48.9955 39.6544 48.9521 39.5788 48.8783C39.5032 48.8046 39.4573 48.7055 39.4501 48.6001V46.8001C39.4573 46.6947 39.5032 46.5957 39.5788 46.5219C39.6544 46.4482 39.7545 46.4048 39.8601 46.4001H41.6801C41.7838 46.4072 41.8816 46.4516 41.9551 46.5251C42.0287 46.5987 42.0731 46.6964 42.0801 46.8001V48.6001C42.1801 48.8001 41.8801 49.0001 41.6801 49.0001ZM40.3601 48.1001H41.2701V47.2001H40.3601V48.1001Z" fill="black"/>
<path d="M34.7001 44.5001C34.6213 44.4987 34.5438 44.48 34.4729 44.4455C34.4021 44.4109 34.3397 44.3613 34.2901 44.3001C33.777 43.3101 33.4997 42.2149 33.4801 41.1001C33.4894 40.9954 33.5359 40.8976 33.6111 40.8242C33.6863 40.7509 33.7853 40.7068 33.8901 40.7001C34.0901 40.7001 34.3901 40.7001 34.3901 41.0001C34.3635 41.9811 34.6092 42.9503 35.1001 43.8001C35.1451 43.9073 35.1497 44.0273 35.1129 44.1377C35.0761 44.248 35.0005 44.3413 34.9001 44.4001C34.8462 44.4544 34.7759 44.4895 34.7001 44.5001Z" fill="black"/>
<path d="M39.8601 48C38.6581 47.8426 37.5122 47.3966 36.5201 46.7C36.3201 46.6 36.3201 46.3 36.4201 46.1C36.5201 45.9 36.8201 45.9 37.0201 46C37.732 46.5343 38.5683 46.8785 39.4501 47V46.7C39.4573 46.5946 39.5031 46.4956 39.5788 46.4218C39.6544 46.348 39.7545 46.3047 39.8601 46.3H41.6801C41.7838 46.307 41.8815 46.3514 41.9551 46.425C42.0286 46.4985 42.073 46.5962 42.0801 46.7V47C42.8808 46.8133 43.638 46.4737 44.3101 46C44.5101 45.9 44.8101 45.9 44.9101 46.1C45.0101 46.3 45.0201 46.6 44.8101 46.7C43.8782 47.3455 42.8046 47.7571 41.6801 47.9C41.536 47.9148 41.3912 47.8795 41.2701 47.8C41.1701 47.7 41.0701 47.6 41.0701 47.5V47.1H40.1601V47.5C40.1601 47.6 40.0601 47.8 39.9601 47.8C40.0601 48 40.0001 48 39.8601 48Z" fill="black"/>
<path d="M46.6301 44.5C46.5301 44.5 46.5301 44.5 46.4301 44.4C46.3297 44.3412 46.254 44.248 46.2173 44.1376C46.1805 44.0272 46.185 43.9073 46.23 43.8C46.7149 42.9115 46.9596 41.912 46.94 40.9C46.9471 40.7962 46.9915 40.6985 47.065 40.625C47.1386 40.5514 47.2363 40.507 47.34 40.5C47.4449 40.5067 47.5439 40.5508 47.6191 40.6241C47.6943 40.6975 47.7407 40.7954 47.75 40.9C47.7426 42.0483 47.4652 43.1788 46.94 44.2C46.94 44.4 46.8401 44.5 46.6301 44.5Z" fill="black"/>
<path d="M43.4001 57.9001C34.9001 57.9001 30.1501 56 27.6201 54C24.3801 51.6 24.0801 48.9 24.0801 48.8C24.0801 48.7 24.2801 48.3 24.4801 48.3C24.6801 48.3 24.9901 48.5001 24.9901 48.7001C25.4148 50.6008 26.5765 52.2552 28.2201 53.3C31.8701 56 40.0001 58.7 57.6601 55.6C57.8601 55.6 58.1701 55.7 58.1701 56C58.1701 56.3 58.0701 56.5 57.7601 56.5C53.023 57.3818 48.2183 57.8502 43.4001 57.9001Z" fill="black"/>
<path d="M76.6801 28.9C76.5752 28.8933 76.4763 28.8492 76.4011 28.7759C76.3259 28.7025 76.2794 28.6046 76.2701 28.5V28.1C76.2542 27.9575 76.2935 27.8143 76.3801 27.7C76.4801 27.6 76.5801 27.5 76.6801 27.5C76.7838 27.507 76.8815 27.5514 76.9551 27.625C77.0286 27.6985 77.073 27.7962 77.0801 27.9V28.4C77.0914 28.519 77.056 28.6377 76.9813 28.731C76.9067 28.8243 76.7986 28.885 76.6801 28.9Z" fill="black"/>
<path d="M70.7101 68.4001H65.3501C65.2452 68.3934 65.1463 68.3493 65.0711 68.276C64.9959 68.2026 64.9494 68.1047 64.9401 68.0001V50.3001L63.4301 47.3001L62.0001 50.3001V68.0001C61.9931 68.1039 61.9487 68.2016 61.8751 68.2751C61.8016 68.3487 61.7038 68.3931 61.6001 68.4001H24.4801C24.3763 68.3931 24.2786 68.3487 24.205 68.2751C24.1315 68.2016 24.0871 68.1039 24.0801 68.0001V28.0001C24.0871 27.8963 24.1315 27.7986 24.205 27.7251C24.2786 27.6515 24.3763 27.6071 24.4801 27.6001H37.5301C37.6074 27.6016 37.6835 27.6203 37.7527 27.6549C37.8219 27.6895 37.8825 27.7391 37.9301 27.8001C37.9567 27.8262 37.9778 27.8573 37.9923 27.8916C38.0067 27.926 38.0141 27.9628 38.0141 28.0001C38.0141 28.0373 38.0067 28.0742 37.9923 28.1086C37.9778 28.1429 37.9567 28.174 37.9301 28.2001C37.8064 28.5541 37.7389 28.9252 37.7301 29.3001C37.7069 29.6932 37.7644 30.087 37.8989 30.4571C38.0334 30.8273 38.2421 31.166 38.5123 31.4526C38.7825 31.7391 39.1084 31.9674 39.47 32.1235C39.8316 32.2795 40.2212 32.36 40.6151 32.36C41.0089 32.36 41.3986 32.2795 41.7602 32.1235C42.1218 31.9674 42.4477 31.7391 42.7178 31.4526C42.988 31.166 43.1968 30.8273 43.3313 30.4571C43.4658 30.087 43.5232 29.6932 43.5001 29.3001C43.4913 28.9252 43.4238 28.5541 43.3001 28.2001C43.1901 28.1001 43.3001 27.9001 43.3001 27.8001C43.3477 27.7391 43.4083 27.6895 43.4775 27.6549C43.5467 27.6203 43.6227 27.6016 43.7001 27.6001H70.0001C70.1001 27.6001 70.3101 27.7001 70.3101 27.8001C70.3101 27.9001 70.4101 28.0001 70.4101 28.2001V60.0001C70.8686 59.4122 71.4944 58.9769 72.2051 58.7517C72.9158 58.5264 73.6781 58.5217 74.3915 58.7383C75.1049 58.9548 75.736 59.3823 76.2017 59.9646C76.6673 60.5469 76.9457 61.2565 77.0001 62.0001V62.2001C77.0084 63.0242 76.8507 63.8416 76.5364 64.6035C76.2221 65.3654 75.7576 66.0562 75.1706 66.6347C74.5837 67.2133 73.8862 67.6678 73.1199 67.9711C72.3536 68.2744 71.534 68.4203 70.7101 68.4001ZM65.8501 67.5001H70.7101C72.1157 67.5066 73.4692 66.9689 74.4871 65.9995C75.5049 65.0301 76.1081 63.7043 76.1701 62.3001C76.1701 61.9285 76.0969 61.5605 75.9547 61.2171C75.8124 60.8737 75.604 60.5618 75.3412 60.299C75.0784 60.0362 74.7664 59.8277 74.4231 59.6855C74.0797 59.5433 73.7117 59.4701 73.3401 59.4701C72.9684 59.4701 72.6004 59.5433 72.2571 59.6855C71.9137 59.8277 71.6018 60.0362 71.339 60.299C71.0762 60.5618 70.8677 60.8737 70.7255 61.2171C70.5833 61.5605 70.5101 61.9285 70.5101 62.3001C70.5028 62.4055 70.457 62.5045 70.3814 62.5783C70.3058 62.6521 70.2056 62.6954 70.1001 62.7001C69.9963 62.6931 69.8986 62.6487 69.825 62.5751C69.7515 62.5016 69.7071 62.4039 69.7001 62.3001V28.5001H44.4101C44.4924 28.7583 44.5263 29.0295 44.5101 29.3001C44.5075 29.8017 44.4061 30.298 44.2117 30.7604C44.0173 31.2229 43.7337 31.6425 43.3771 31.9954C43.0205 32.3483 42.5979 32.6274 42.1335 32.817C41.669 33.0065 41.1717 33.1027 40.6701 33.1001C40.173 33.1015 39.6806 33.0038 39.2218 32.8127C38.7629 32.6216 38.3467 32.3409 37.9976 31.9871C37.6484 31.6333 37.3733 31.2135 37.1883 30.7521C37.0033 30.2907 36.9121 29.7971 36.9201 29.3001C36.8988 29.0294 36.9328 28.7572 37.0201 28.5001H25.0001V67.6001H61.1001V50.0001L63.0001 46.0001C63.1001 45.8001 63.2001 45.7001 63.4101 45.7001C63.6101 45.7001 63.7101 45.8001 63.8101 46.0001L65.7301 50.0001V67.5001H65.8501Z" fill="black"/>
<path d="M76.68 62.7001C76.5752 62.6933 76.4762 62.6493 76.401 62.576C76.3258 62.5026 76.2794 62.4047 76.27 62.3001C76.27 61.9285 76.1968 61.5605 76.0546 61.2171C75.9124 60.8737 75.7039 60.5618 75.4412 60.299C75.1784 60.0362 74.8664 59.8277 74.523 59.6855C74.1797 59.5433 73.8117 59.4701 73.44 59.4701C73.0684 59.4701 72.7004 59.5433 72.357 59.6855C72.0137 59.8277 71.7017 60.0362 71.4389 60.299C71.1761 60.5618 70.9677 60.8737 70.8255 61.2171C70.6832 61.5605 70.61 61.9285 70.61 62.3001C70.6028 62.4055 70.557 62.5045 70.4813 62.5783C70.4057 62.6521 70.3056 62.6954 70.2 62.7001C70.0963 62.6931 69.9986 62.6487 69.925 62.5751C69.8515 62.5016 69.8071 62.4039 69.8 62.3001V28.5001C69.7894 27.9984 69.8778 27.4996 70.06 27.032C70.2422 26.5645 70.5148 26.1374 70.8621 25.7753C71.2094 25.4131 71.6247 25.1229 72.0842 24.9213C72.5436 24.7196 73.0384 24.6105 73.54 24.6001C74.549 24.6364 75.5043 25.0636 76.2041 25.7914C76.9039 26.5192 77.2933 27.4905 77.29 28.5001V62.2001C77.08 62.5001 76.88 62.7001 76.68 62.7001ZM73.34 58.5001C73.8877 58.5001 74.4279 58.6264 74.9187 58.8692C75.4096 59.112 75.8378 59.4648 76.17 59.9001V28.5001C76.1916 27.7273 75.9058 26.9774 75.3752 26.4151C74.8447 25.8527 74.1128 25.5236 73.34 25.5001C72.5742 25.5436 71.8541 25.8787 71.3278 26.4367C70.8014 26.9947 70.5088 27.733 70.51 28.5001V59.9001C70.8423 59.4648 71.2705 59.112 71.7614 58.8692C72.2522 58.6264 72.7924 58.5001 73.34 58.5001Z" fill="black"/>
<path d="M63.43 69.9001C63.3245 69.8954 63.2243 69.8521 63.1487 69.7783C63.0731 69.7045 63.0273 69.6055 63.02 69.5001V52.6001C63.0352 52.5036 63.0844 52.4157 63.1586 52.3522C63.2329 52.2888 63.3273 52.2539 63.425 52.2539C63.5227 52.2539 63.6172 52.2888 63.6914 52.3522C63.7657 52.4157 63.8148 52.5036 63.83 52.6001V69.4001C63.93 69.7001 63.73 69.9001 63.43 69.9001Z" fill="black"/>
<path d="M65.3501 72.0001H61.5001C61.3963 71.9931 61.2986 71.9487 61.2251 71.8751C61.1515 71.8016 61.1071 71.7038 61.1001 71.6001V50.0001L63.0001 46.0001C63.1001 45.8001 63.2001 45.7001 63.4101 45.7001C63.6101 45.7001 63.7101 45.8001 63.8101 46.0001L65.7301 50.0001V71.5001C65.8501 71.8001 65.6501 72.0001 65.3501 72.0001ZM62.0001 71.1001H64.9301V50.3001L63.4201 47.3001L62.0001 50.3001V71.1001Z" fill="black"/>
<path d="M65.3501 73.6001H61.5001C61.3963 73.5931 61.2986 73.5487 61.2251 73.4751C61.1515 73.4016 61.1071 73.3038 61.1001 73.2001V71.6001C61.1071 71.4963 61.1515 71.3986 61.2251 71.325C61.2986 71.2515 61.3963 71.2071 61.5001 71.2001H65.3501C65.4539 71.2071 65.5516 71.2515 65.6251 71.325C65.6987 71.3986 65.7431 71.4963 65.7501 71.6001V73.2001C65.8501 73.4001 65.6501 73.6001 65.3501 73.6001ZM62.0001 72.7001H64.9301V72.0001H62.0001V72.7001Z" fill="black"/>
<path d="M64.3401 77.4001H62.5201C62.1228 77.3926 61.7435 77.2328 61.4606 76.9536C61.1777 76.6744 61.0129 76.2973 61.0001 75.9001V73.1001C61.0071 72.9963 61.0515 72.8986 61.1251 72.825C61.1986 72.7515 61.2963 72.7071 61.4001 72.7001H65.2501C65.3539 72.7071 65.4516 72.7515 65.5252 72.825C65.5987 72.8986 65.6431 72.9963 65.6501 73.1001V75.9001C65.685 76.0884 65.6769 76.2822 65.6263 76.467C65.5757 76.6518 65.484 76.8227 65.358 76.9669C65.2319 77.1112 65.0749 77.2251 64.8987 77.3001C64.7224 77.3752 64.5315 77.4093 64.3401 77.4001ZM62.0001 73.6001V76.0001C62.012 76.157 62.0803 76.3043 62.1925 76.4146C62.3047 76.5249 62.453 76.5908 62.6101 76.6001H64.4301C64.5872 76.5908 64.7356 76.5249 64.8478 76.4146C64.9599 76.3043 65.0283 76.157 65.0401 76.0001V73.6001H62.0001Z" fill="black"/>
<path d="M65.3501 52.9001H61.5001C61.3963 52.893 61.2986 52.8486 61.2251 52.7751C61.1515 52.7015 61.1071 52.6038 61.1001 52.5V50.1L63.0201 46.1C63.1201 45.9 63.2201 45.8 63.4301 45.8C63.6301 45.8 63.7301 45.9 63.8301 46.1L65.7501 50.1V52.5C65.8501 52.7 65.6501 52.9001 65.3501 52.9001ZM62.0001 52H64.9301V50.4001L63.4201 47.4001L62.0001 50.4001V52Z" fill="black"/>
<path d="M74.45 43.2C74.3463 43.193 74.2486 43.1486 74.175 43.075C74.1015 43.0015 74.0571 42.9037 74.05 42.8V29.5C74.0653 29.4035 74.1144 29.3156 74.1887 29.2521C74.2629 29.1887 74.3574 29.1538 74.455 29.1538C74.5527 29.1538 74.6472 29.1887 74.7214 29.2521C74.7957 29.3156 74.8448 29.4035 74.86 29.5V42.7C74.8712 42.8205 74.8345 42.9406 74.7577 43.0342C74.681 43.1278 74.5704 43.1873 74.45 43.2Z" fill="black"/>
<path d="M74.45 54.9C74.3463 54.893 74.2486 54.8486 74.175 54.775C74.1015 54.7015 74.0571 54.6037 74.05 54.5V47.5C74.0653 47.4035 74.1144 47.3156 74.1887 47.2521C74.2629 47.1887 74.3574 47.1538 74.455 47.1538C74.5527 47.1538 74.6472 47.1887 74.7214 47.2521C74.7957 47.3156 74.8448 47.4035 74.86 47.5V54.5C74.8528 54.6054 74.807 54.7044 74.7313 54.7782C74.6557 54.852 74.5556 54.8953 74.45 54.9Z" fill="black"/>
<path d="M48.35 71.0001H28.43C28.3239 71.0001 28.2222 70.9579 28.1472 70.8829C28.0722 70.8079 28.03 70.7062 28.03 70.6001C28.03 70.494 28.0722 70.3922 28.1472 70.3172C28.2222 70.2422 28.3239 70.2001 28.43 70.2001H48.25C48.3556 70.2047 48.4557 70.2481 48.5313 70.3219C48.6069 70.3956 48.6528 70.4947 48.66 70.6001C48.66 70.8001 48.56 71.0001 48.35 71.0001Z" fill="black"/>
<path d="M54.5201 72.6H39.0001C38.894 72.6 38.7923 72.5579 38.7173 72.4829C38.6422 72.4079 38.6001 72.3061 38.6001 72.2C38.6001 72.094 38.6422 71.9922 38.7173 71.9172C38.7923 71.8422 38.894 71.8 39.0001 71.8H54.5201C54.6256 71.8047 54.7258 71.8481 54.8014 71.9218C54.877 71.9956 54.9228 72.0946 54.9301 72.2C54.9349 72.2546 54.9275 72.3096 54.9084 72.361C54.8894 72.4124 54.8591 72.4589 54.8199 72.4972C54.7807 72.5355 54.7334 72.5646 54.6816 72.5824C54.6297 72.6001 54.5746 72.6062 54.5201 72.6Z" fill="black"/>
<path d="M59.1801 72.6H56.2401C56.134 72.6 56.0323 72.5579 55.9572 72.4829C55.8822 72.4079 55.8401 72.3061 55.8401 72.2C55.8401 72.094 55.8822 71.9922 55.9572 71.9172C56.0323 71.8422 56.134 71.8 56.2401 71.8H59.1801C59.2862 71.8 59.3879 71.8422 59.4629 71.9172C59.5379 71.9922 59.5801 72.094 59.5801 72.2C59.5801 72.3061 59.5379 72.4079 59.4629 72.4829C59.3879 72.5579 59.2862 72.6 59.1801 72.6Z" fill="black"/>
<path d="M32.2701 72.6H24.8901C24.784 72.6 24.6823 72.5579 24.6073 72.4829C24.5323 72.4079 24.4901 72.3061 24.4901 72.2C24.4901 72.094 24.5323 71.9922 24.6073 71.9172C24.6823 71.8422 24.784 71.8 24.8901 71.8H32.2701C32.3739 71.8071 32.4716 71.8515 32.5451 71.925C32.6187 71.9986 32.6631 72.0963 32.6701 72.2C32.6747 72.2537 32.6675 72.3078 32.649 72.3584C32.6305 72.409 32.6012 72.4549 32.5631 72.493C32.525 72.5311 32.479 72.5604 32.4284 72.5789C32.3778 72.5974 32.3238 72.6046 32.2701 72.6Z" fill="black"/>
<path d="M70.0001 32.8H49.2601C49.154 32.8 49.0523 32.7579 48.9773 32.6828C48.9022 32.6078 48.8601 32.5061 48.8601 32.4C48.8601 32.2939 48.9022 32.1922 48.9773 32.1172C49.0523 32.0421 49.154 32 49.2601 32H70.1001C70.2057 32.0047 70.3058 32.048 70.3814 32.1218C70.457 32.1956 70.5028 32.2946 70.5101 32.4C70.4951 32.5205 70.4331 32.6301 70.3375 32.7051C70.242 32.78 70.1207 32.8141 70.0001 32.8Z" fill="black"/>
</svg>
