<svg width="33" height="25" viewBox="0 0 33 25" fill="none" xmlns="http://www.w3.org/2000/svg">
<path d="M32.6426 0C31.959 2.50651 31.2754 5.22461 30.5918 8.1543C29.9408 11.0514 29.3385 13.916 28.7852 16.748C28.2318 19.5801 27.7923 22.1517 27.4668 24.4629H18.8242L18.0918 23.3887C18.6777 21.0124 19.4264 18.4733 20.3379 15.7715C21.2819 13.0697 22.291 10.3678 23.3652 7.66602C24.472 4.93164 25.5788 2.3763 26.6855 0H32.6426ZM14.6738 0C13.9902 2.50651 13.3066 5.22461 12.623 8.1543C11.972 11.0514 11.3698 13.916 10.8164 16.748C10.263 19.5801 9.82357 22.1517 9.49805 24.4629H0.904297L0.318359 23.3887C0.904297 21.0124 1.63672 18.4733 2.51562 15.7715C3.42708 13.0697 4.41992 10.3678 5.49414 7.66602C6.56836 4.93164 7.65885 2.3763 8.76562 0H14.6738Z" fill="#333333"/>
</svg>
