<svg width="52" height="58" viewBox="0 0 52 58" fill="none" xmlns="http://www.w3.org/2000/svg">
<path d="M42.99 50.1001H40.36C40.0514 48.6903 39.2725 47.4273 38.1513 46.5187C37.03 45.6101 35.6331 45.1098 34.19 45.1001C33.8458 45.095 33.5171 44.9567 33.2728 44.7143C33.0285 44.4718 32.8877 44.1441 32.88 43.8001V42.3001C33.6167 42.0577 34.258 41.5888 34.7124 40.9602C35.1667 40.3317 35.4109 39.5756 35.41 38.8001C35.4122 38.038 35.1803 37.2937 34.7457 36.6677C34.3111 36.0417 33.6947 35.5643 32.98 35.3001C35.9111 33.4788 38.0522 30.624 38.98 27.3001C41.6892 26.4105 44.1012 24.7922 45.9515 22.6226C47.8019 20.4529 49.0192 17.8157 49.47 15.0001L50.58 7.70007C50.6059 7.52628 50.594 7.34895 50.545 7.18019C50.4961 7.01144 50.4112 6.85525 50.2963 6.72231C50.1814 6.58937 50.0392 6.48282 49.8793 6.40994C49.7194 6.33707 49.5457 6.29959 49.37 6.30007H41.27L41.78 1.40007C41.7979 1.22684 41.78 1.05176 41.7274 0.885735C41.6748 0.719708 41.5886 0.566276 41.4742 0.434973C41.3597 0.303671 41.2195 0.197305 41.0623 0.122489C40.905 0.0476722 40.734 0.00600469 40.56 7.3194e-05H10.12C9.94341 -0.00186068 9.76854 0.034548 9.60743 0.106787C9.44633 0.179027 9.30282 0.285375 9.18682 0.418486C9.07083 0.551597 8.9851 0.708298 8.93558 0.87777C8.88605 1.04724 8.87389 1.22545 8.89995 1.40007L9.40996 6.30007H1.30996C1.13158 6.29043 0.953372 6.32175 0.788983 6.39165C0.624593 6.46154 0.478391 6.56815 0.361584 6.7033C0.244776 6.83845 0.160467 6.99855 0.115116 7.17133C0.0697659 7.34411 0.0645785 7.52498 0.0999547 7.70007L1.20996 15.0001C1.66156 17.8169 2.88034 20.4549 4.73256 22.6247C6.58479 24.7944 8.99888 26.412 11.71 27.3001C12.6377 30.624 14.7788 33.4788 17.71 35.3001C16.9757 35.5453 16.3371 36.0152 15.8847 36.6433C15.4322 37.2714 15.1888 38.026 15.1888 38.8001C15.1888 39.5742 15.4322 40.3287 15.8847 40.9568C16.3371 41.585 16.9757 42.0549 17.71 42.3001V43.8001C17.7022 44.1441 17.5614 44.4718 17.3171 44.7143C17.0728 44.9567 16.7441 45.095 16.4 45.1001C14.9568 45.1098 13.5599 45.6101 12.4386 46.5187C11.3174 47.4273 10.5385 48.6903 10.23 50.1001H7.58996C5.91164 50.0999 4.30087 50.7611 3.10666 51.9404C1.91246 53.1196 1.231 54.7219 1.20996 56.4001C1.21775 56.7459 1.35994 57.075 1.60637 57.3177C1.8528 57.5604 2.18409 57.6976 2.52995 57.7001H48.05C48.2181 57.7052 48.3853 57.6744 48.5405 57.6096C48.6957 57.5449 48.8353 57.4477 48.9499 57.3246C49.0645 57.2015 49.1514 57.0553 49.2049 56.8959C49.2584 56.7364 49.2771 56.5674 49.26 56.4001C49.2706 55.5723 49.116 54.7508 48.805 53.9836C48.4941 53.2163 48.0331 52.5189 47.4492 51.9322C46.8652 51.3454 46.17 50.8811 45.4043 50.5665C44.6386 50.2519 43.8178 50.0934 42.99 50.1001ZM39.45 24.4001L40.45 13.8001H47.03L46.93 14.6001C46.5916 16.725 45.731 18.7327 44.4255 20.4432C43.12 22.1536 41.4104 23.5132 39.45 24.4001ZM47.85 8.80007L47.44 11.3001H40.77L40.97 8.80007H47.85ZM9.60996 8.80007L9.80995 11.3001H3.13996L2.70996 8.80007H9.60996ZM3.60995 14.6001L3.50995 13.8001H10.09L11.09 24.4001C9.13513 23.5093 7.43151 22.148 6.13144 20.4378C4.83136 18.7276 3.97536 16.7219 3.63996 14.6001H3.60995ZM13.76 25.0001L11.53 2.60007H39.05L38.64 6.40007H20.23C19.8852 6.40007 19.5545 6.53704 19.3107 6.78083C19.0669 7.02463 18.93 7.35529 18.93 7.70007C18.93 8.04485 19.0669 8.37551 19.3107 8.61931C19.5545 8.86311 19.8852 9.00007 20.23 9.00007H38.44L36.82 25.2001C36.449 27.9952 35.0752 30.5604 32.9543 32.4183C30.8333 34.2762 28.1096 35.3003 25.29 35.3001C22.4503 35.2581 19.7211 34.1934 17.6031 32.3014C15.4852 30.4094 14.1207 27.817 13.76 25.0001ZM31.71 37.6001C32.0547 37.6001 32.3854 37.737 32.6292 37.9808C32.873 38.2246 33.01 38.5553 33.01 38.9001C33.01 39.2449 32.873 39.5755 32.6292 39.8193C32.3854 40.0631 32.0547 40.2001 31.71 40.2001H19.02C18.6752 40.2001 18.3445 40.0631 18.1007 39.8193C17.8569 39.5755 17.72 39.2449 17.72 38.9001C17.72 38.5553 17.8569 38.2246 18.1007 37.9808C18.3445 37.737 18.6752 37.6001 19.02 37.6001H31.71ZM16.54 47.6001C17.5444 47.5922 18.5054 47.189 19.2147 46.4778C19.9241 45.7666 20.3247 44.8046 20.33 43.8001V42.5001H30.45V43.8001C30.4675 44.2395 30.5346 44.6756 30.65 45.1001H25.29C25.1192 45.1001 24.9502 45.1337 24.7925 45.199C24.6347 45.2644 24.4914 45.3601 24.3707 45.4808C24.25 45.6016 24.1542 45.7449 24.0889 45.9026C24.0236 46.0603 23.99 46.2294 23.99 46.4001C23.99 46.5708 24.0236 46.7398 24.0889 46.8976C24.1542 47.0553 24.25 47.1986 24.3707 47.3193C24.4914 47.44 24.6347 47.5358 24.7925 47.6011C24.9502 47.6664 25.1192 47.7001 25.29 47.7001H34.19C34.9645 47.6959 35.7209 47.9349 36.3524 48.3834C36.9839 48.8319 37.4588 49.4674 37.71 50.2001H12.85C13.0883 49.4279 13.5735 48.7553 14.2311 48.2856C14.8887 47.8159 15.6822 47.5751 16.49 47.6001H16.54ZM4.04996 55.1001C4.30224 54.3641 4.78011 53.7264 5.41563 53.2775C6.05115 52.8287 6.81198 52.5917 7.58996 52.6001H42.99C43.7679 52.5917 44.5288 52.8287 45.1643 53.2775C45.7998 53.7264 46.2777 54.3641 46.53 55.1001H4.04996Z" fill="white"/>
<path d="M6.37 40.7001C6.36209 39.8752 6.02884 39.0868 5.4427 38.5062C4.85657 37.9257 4.06496 37.6001 3.24 37.6001C2.40368 37.5969 1.59869 37.9181 0.994408 38.4963C0.390123 39.0745 0.0336539 39.8645 0 40.7001C0.010521 41.526 0.345978 42.3144 0.933706 42.8946C1.52143 43.4749 2.3141 43.8002 3.14 43.8001C3.97533 43.8033 4.77921 43.4817 5.38189 42.9033C5.98457 42.3249 6.33887 41.5349 6.37 40.7001ZM2.53 40.7001C2.52801 40.5791 2.5621 40.4602 2.62791 40.3585C2.69372 40.2569 2.78828 40.1772 2.89955 40.1295C3.01082 40.0818 3.13378 40.0683 3.25276 40.0907C3.37174 40.113 3.48136 40.1703 3.56767 40.2552C3.65399 40.3401 3.71308 40.4488 3.73744 40.5674C3.7618 40.686 3.75032 40.8091 3.70446 40.9212C3.6586 41.0332 3.58043 41.1291 3.47991 41.1966C3.37939 41.2641 3.26107 41.3001 3.14 41.3001C2.98292 41.2909 2.83453 41.225 2.72235 41.1146C2.61018 41.0043 2.54183 40.857 2.53 40.7001Z" fill="white"/>
<path d="M48.71 43.8001C48.0982 43.8061 47.5018 43.9929 46.996 44.3371C46.4902 44.6813 46.0975 45.1675 45.8675 45.7345C45.6374 46.3014 45.5803 46.9238 45.7033 47.5231C45.8263 48.1225 46.1238 48.672 46.5586 49.1026C46.9933 49.5331 47.5457 49.8254 48.1462 49.9426C48.7467 50.0598 49.3685 49.9967 49.9332 49.7612C50.4979 49.5257 50.9803 49.1284 51.3196 48.6193C51.6589 48.1101 51.84 47.512 51.84 46.9001C51.8441 46.4894 51.7657 46.082 51.6095 45.702C51.4533 45.3221 51.2224 44.9774 50.9305 44.6883C50.6386 44.3992 50.2917 44.1717 49.9103 44.0191C49.5289 43.8666 49.1207 43.7921 48.71 43.8001ZM48.71 47.6002C48.5913 47.6002 48.4753 47.565 48.3767 47.499C48.278 47.4331 48.2011 47.3394 48.1557 47.2298C48.1103 47.1201 48.0984 46.9995 48.1215 46.8831C48.1447 46.7667 48.2018 46.6598 48.2858 46.5759C48.3697 46.492 48.4766 46.4348 48.593 46.4117C48.7093 46.3885 48.83 46.4004 48.9396 46.4458C49.0493 46.4912 49.143 46.5681 49.2089 46.6668C49.2748 46.7655 49.31 46.8815 49.31 47.0001C49.37 47.3001 49.06 47.6002 48.71 47.6002Z" fill="white"/>
<path d="M40.46 31.9C40.4481 32.785 40.6998 33.6535 41.183 34.395C41.6662 35.1365 42.3591 35.7175 43.1736 36.064C43.988 36.4105 44.8871 36.5069 45.7564 36.3408C46.6258 36.1747 47.4261 35.7538 48.0554 35.1315C48.6848 34.5092 49.1148 33.7137 49.2906 32.8463C49.4665 31.9789 49.3803 31.0787 49.0431 30.2604C48.7058 29.4422 48.1327 28.7427 47.3967 28.2511C46.6607 27.7596 45.7951 27.4981 44.91 27.5C43.74 27.5051 42.6186 27.9687 41.7866 28.7914C40.9546 29.614 40.4783 30.7301 40.46 31.9ZM46.84 31.9C46.8387 32.1517 46.7877 32.4006 46.6898 32.6325C46.592 32.8644 46.4493 33.0747 46.27 33.2512C46.0906 33.4278 45.8782 33.5672 45.6448 33.6613C45.4114 33.7555 45.1617 33.8026 44.91 33.8C44.4061 33.8 43.9228 33.5998 43.5665 33.2435C43.2102 32.8872 43.01 32.4039 43.01 31.9C43.01 31.3961 43.2102 30.9128 43.5665 30.5565C43.9228 30.2002 44.4061 30 44.91 30C45.1617 29.9974 45.4114 30.0445 45.6448 30.1387C45.8782 30.2329 46.0906 30.3722 46.27 30.5488C46.4493 30.7254 46.592 30.9356 46.6898 31.1675C46.7877 31.3994 46.8387 31.6483 46.84 31.9Z" fill="white"/>
<path d="M29.23 27.5C29.4326 27.6547 29.6865 27.7263 29.94 27.7C30.1365 27.7053 30.3313 27.6639 30.5086 27.5791C30.6859 27.4943 30.8405 27.3686 30.9596 27.2123C31.0788 27.0561 31.1591 26.8737 31.1939 26.6803C31.2288 26.487 31.2171 26.288 31.16 26.1L29.64 21.5L33.58 18.7C33.7837 18.5347 33.9388 18.3171 34.0286 18.0705C34.1184 17.824 34.1396 17.5577 34.09 17.3C34.0069 17.0428 33.8457 16.818 33.6289 16.6567C33.412 16.4953 33.1502 16.4056 32.88 16.4H28.02L26.5 11.8C26.3973 11.5645 26.2282 11.3641 26.0132 11.2233C25.7983 11.0825 25.5469 11.0076 25.29 11.0076C25.0331 11.0076 24.7817 11.0825 24.5668 11.2233C24.3519 11.3641 24.1827 11.5645 24.08 11.8L22.56 16.4H17.71C17.4438 16.4201 17.1888 16.5153 16.9746 16.6747C16.7604 16.834 16.5958 17.0509 16.5 17.3C16.4042 17.5548 16.4018 17.8353 16.4934 18.0917C16.5849 18.348 16.7645 18.5636 17 18.7L20.95 21.5L19.43 26.1C19.3329 26.3558 19.331 26.6379 19.4246 26.8949C19.5183 27.1519 19.7012 27.3667 19.94 27.5C20.166 27.6476 20.4301 27.7262 20.7 27.7262C20.9699 27.7262 21.234 27.6476 21.46 27.5L25.4 24.7L29.23 27.5ZM22.96 23.2L23.57 21.4C23.6671 21.1443 23.669 20.8622 23.5754 20.6052C23.4818 20.3482 23.2988 20.1334 23.06 20L21.55 18.8H23.47C23.7332 18.8067 23.9922 18.7339 24.2134 18.5912C24.4346 18.4485 24.6076 18.2425 24.71 18L25.32 16.2L25.93 18C26.0182 18.2462 26.1837 18.4572 26.4018 18.6014C26.62 18.7457 26.879 18.8153 27.14 18.8H29.06L27.55 19.9C27.3463 20.0654 27.1912 20.283 27.1014 20.5295C27.0116 20.7761 26.9904 21.0424 27.04 21.3L27.65 23.1L26.13 22C25.904 21.8524 25.6399 21.7739 25.37 21.7739C25.1001 21.7739 24.836 21.8524 24.61 22L22.96 23.2Z" fill="white"/>
<path d="M17.71 7.6001C17.714 7.33778 17.6397 7.08024 17.4967 6.86034C17.3536 6.64043 17.1483 6.46814 16.9069 6.36545C16.6655 6.26277 16.3989 6.23434 16.1413 6.28381C15.8837 6.33328 15.6466 6.45839 15.4604 6.64318C15.2742 6.82797 15.1473 7.06406 15.0958 7.32131C15.0444 7.57856 15.0708 7.8453 15.1716 8.08749C15.2724 8.32968 15.4431 8.53633 15.6619 8.68106C15.8807 8.8258 16.1377 8.90205 16.4 8.9001C16.79 8.8001 17.71 8.2001 17.71 7.6001Z" fill="white"/>
</svg>
