<svg width="60" height="57" viewBox="0 0 60 57" fill="none" xmlns="http://www.w3.org/2000/svg">
<path d="M49.0627 35.2033L39.9627 31.8033L37.7327 29.2033C37.6045 29.0606 37.446 28.9483 37.2689 28.8746C37.0918 28.8009 36.9005 28.7677 36.7089 28.7772C36.5173 28.7868 36.3303 28.839 36.1614 28.93C35.9925 29.021 35.8461 29.1485 35.7327 29.3033L29.9627 37.4033L23.8727 29.3033C23.7589 29.1443 23.6088 29.0148 23.4349 28.9254C23.261 28.836 23.0683 28.7894 22.8727 28.7894C22.6772 28.7894 22.4845 28.836 22.3106 28.9254C22.1367 29.0148 21.9866 29.1443 21.8727 29.3033L19.8727 31.9033L17.1427 33.0033L10.6627 35.3033C9.43948 35.727 8.38051 36.5248 7.63572 37.5836C6.89093 38.6425 6.49806 39.9088 6.51273 41.2033V55.2033C6.52052 55.5491 6.66271 55.8782 6.90914 56.1209C7.15557 56.3636 7.48686 56.5007 7.83272 56.5033H52.1027C52.4469 56.4982 52.7756 56.3599 53.0199 56.1175C53.2642 55.875 53.405 55.5473 53.4127 55.2033V41.2033C53.3635 39.8847 52.9238 38.6105 52.1494 37.5423C51.3749 36.4741 50.3006 35.66 49.0627 35.2033ZM36.8727 32.1033L37.6827 33.1033L32.8727 42.4033L31.4527 39.7033L36.8727 32.1033ZM28.4827 39.7033L26.8627 42.5033L22.2027 33.1033L22.9127 32.2033L28.4827 39.7033ZM50.6827 53.8033H45.6227V43.8033C45.594 43.4743 45.443 43.168 45.1996 42.9449C44.9562 42.7218 44.6379 42.598 44.3077 42.598C43.9775 42.598 43.6593 42.7218 43.4159 42.9449C43.1724 43.168 43.0214 43.4743 42.9927 43.8033V53.8033H16.5927V43.8033C16.564 43.4743 16.413 43.168 16.1696 42.9449C15.9262 42.7218 15.6079 42.598 15.2777 42.598C14.9475 42.598 14.6293 42.7218 14.3858 42.9449C14.1424 43.168 13.9914 43.4743 13.9627 43.8033V53.8033H8.87273V41.1033C8.87029 40.3273 9.11384 39.5706 9.56841 38.9417C10.023 38.3129 10.6652 37.8443 11.4027 37.6033L17.9827 35.3033L19.9827 34.5033L25.4427 45.6033C25.5797 45.8961 25.8265 46.1232 26.1297 46.2355C26.4328 46.3478 26.768 46.3362 27.0627 46.2033L27.1627 46.1033L27.2627 46.0033L27.3627 45.9033C27.5727 45.7033 27.4727 45.9033 29.6927 42.1033L31.6127 45.6033C31.7196 45.8064 31.88 45.9764 32.0765 46.0951C32.273 46.2137 32.4982 46.2764 32.7277 46.2764C32.9573 46.2764 33.1824 46.2137 33.379 46.0951C33.5755 45.9764 33.7358 45.8064 33.8427 45.6033L39.5027 34.4033L47.9027 37.5033C48.6293 37.7493 49.2576 38.2223 49.6951 38.8524C50.1326 39.4825 50.3561 40.2365 50.3327 41.0033V53.8033H50.6827Z" fill="white"/>
<path d="M17.5026 12.1033C17.6102 16.1332 18.6873 20.0779 20.6426 23.6033C23.0726 28.1033 26.5026 30.5033 30.1526 30.5033C33.8026 30.5033 37.2326 28.0033 39.6626 23.6033C41.5983 20.0704 42.6708 16.1298 42.7926 12.1033C42.7668 11.6975 42.6998 11.2955 42.5926 10.9033L42.6926 8.00327C42.7082 7.83059 42.6786 7.65682 42.6067 7.49904C42.5348 7.34125 42.4231 7.20487 42.2826 7.10327L37.9426 3.20327C37.8729 3.01801 37.7675 2.84816 37.6326 2.70327C37.248 1.97318 36.6852 1.35206 35.9964 0.897539C35.3076 0.443017 34.5152 0.169813 33.6926 0.103271H16.9926C16.8276 0.10842 16.6652 0.146221 16.5148 0.214491C16.3645 0.282761 16.2291 0.380145 16.1166 0.50102C16.0041 0.621895 15.9167 0.763866 15.8594 0.918728C15.802 1.07359 15.776 1.23828 15.7826 1.40327V5.80327C15.8158 7.4661 16.5061 9.04812 17.7026 10.2033C17.5814 10.8297 17.5145 11.4654 17.5026 12.1033ZM37.4326 22.4033C36.0126 25.0033 33.5826 28.0033 30.1526 28.0033C26.7226 28.0033 24.2826 24.9033 22.8726 22.4033C21.0583 19.0943 20.1186 15.3769 20.1426 11.6033C20.609 11.7123 21.0843 11.7792 21.5626 11.8033H34.0926C34.6553 11.8052 35.2123 11.6906 35.7286 11.4669C36.2448 11.2432 36.7093 10.9151 37.0926 10.5033L40.2226 12.0033V12.1033C40.1179 15.7086 39.1618 19.238 37.4326 22.4033ZM18.3126 2.60327H33.5826C33.9767 2.67509 34.3481 2.83947 34.6663 3.08286C34.9844 3.32625 35.2402 3.64171 35.4126 4.00327C35.4126 4.10327 35.5126 4.10327 35.5126 4.20327V4.30327C35.5899 4.48257 35.6908 4.65072 35.8126 4.80327L39.9626 8.60327V9.20327C37.0226 7.80327 37.1326 7.80327 36.9626 7.80327C36.6944 7.729 36.4089 7.74789 36.1528 7.85688C35.8967 7.96586 35.6851 8.15848 35.5526 8.40327C35.4669 8.62038 35.3319 8.81464 35.1584 8.9708C34.9849 9.12696 34.7775 9.24076 34.5526 9.30327C34.1426 9.40327 34.6526 9.30327 21.5026 9.40327C19.7826 9.40327 18.3626 7.60327 18.3626 5.80327L18.3126 2.60327Z" fill="white"/>
<path d="M49.0627 14.7033C49.3045 14.9439 49.6317 15.0789 49.9727 15.0789C50.3138 15.0789 50.641 14.9439 50.8827 14.7033L55.1327 10.5033L56.4527 11.8033C56.6218 11.9698 56.8339 12.086 57.0652 12.139C57.2965 12.192 57.538 12.1796 57.7627 12.1033C57.996 12.0279 58.1996 11.8811 58.3449 11.6837C58.4903 11.4864 58.57 11.2483 58.5727 11.0033L59.4827 1.40325C59.4946 1.21546 59.4662 1.0273 59.3994 0.851389C59.3326 0.675478 59.2289 0.515883 59.0954 0.383303C58.9619 0.250723 58.8016 0.148223 58.6252 0.0826761C58.4488 0.017129 58.2604 -0.0099501 58.0727 0.00325414L48.3527 0.903254C48.1129 0.924579 47.8833 1.01013 47.6879 1.1509C47.4926 1.29168 47.3388 1.48248 47.2427 1.70325C47.1363 1.92152 47.1079 2.16973 47.1626 2.40637C47.2172 2.64301 47.3514 2.85372 47.5427 3.00325L48.8727 4.30325L44.6227 8.50325C44.5042 8.62126 44.4102 8.76151 44.346 8.91595C44.2818 9.0704 44.2488 9.236 44.2488 9.40325C44.2488 9.5705 44.2818 9.7361 44.346 9.89055C44.4102 10.045 44.5042 10.1853 44.6227 10.3033L49.0627 14.7033ZM56.8727 2.70325L56.3727 8.20325L51.3727 3.30325L56.8727 2.70325ZM50.8027 6.20325L53.3327 8.70325L49.9727 12.0033L47.4427 9.50325L50.8027 6.20325Z" fill="white"/>
<path d="M48.9627 26.9032L47.6527 28.3032C47.4822 28.4677 47.3625 28.6775 47.3075 28.9079C47.2526 29.1382 47.2648 29.3795 47.3427 29.6032C47.4235 29.8362 47.5746 30.0382 47.7753 30.1816C47.9759 30.3249 48.2161 30.4023 48.4627 30.4032L58.1727 31.3032C58.3608 31.3181 58.5498 31.2922 58.727 31.2272C58.9041 31.1623 59.0652 31.0598 59.1991 30.9269C59.333 30.794 59.4365 30.6337 59.5028 30.457C59.569 30.2803 59.5962 30.0914 59.5827 29.9032L58.6727 20.3032C58.6517 20.0645 58.5662 19.836 58.4253 19.6422C58.2843 19.4485 58.0933 19.2967 57.8727 19.2032C57.6488 19.1208 57.4057 19.1052 57.1731 19.1585C56.9405 19.2117 56.7284 19.3315 56.5627 19.5032L55.2327 20.8032L50.9827 16.6032C50.7409 16.3626 50.4137 16.2275 50.0727 16.2275C49.7316 16.2275 49.4044 16.3626 49.1627 16.6032L44.8127 20.9032C44.6942 21.0212 44.6001 21.1615 44.5359 21.3159C44.4718 21.4704 44.4387 21.636 44.4387 21.8032C44.4387 21.9705 44.4718 22.1361 44.5359 22.2905C44.6001 22.445 44.6942 22.5852 44.8127 22.7032L48.9627 26.9032ZM56.8727 28.7032L51.3127 28.2032L56.3127 23.3032L56.8727 28.7032ZM49.9727 19.3032L53.3127 22.6032L50.7827 25.1032L47.4427 21.8032L49.9727 19.3032Z" fill="white"/>
<path d="M1.01268 11.0032C1.04107 11.2479 1.13636 11.4801 1.28808 11.6741C1.4398 11.8682 1.64207 12.0166 1.87268 12.1032C2.09431 12.2093 2.34528 12.2374 2.58489 12.183C2.8245 12.1285 3.03867 11.9947 3.19268 11.8032L4.50268 10.5032L8.75268 14.7032C8.99442 14.9438 9.32161 15.0789 9.66268 15.0789C10.0037 15.0789 10.3309 14.9438 10.5727 14.7032L14.8727 10.4032C14.9937 10.2866 15.0899 10.1468 15.1556 9.9922C15.2213 9.83757 15.2552 9.67127 15.2552 9.50324C15.2552 9.33522 15.2213 9.16892 15.1556 9.01428C15.0899 8.85965 14.9937 8.71985 14.8727 8.60324L10.6227 4.40324L11.9427 3.10324C12.1093 2.93635 12.2258 2.72603 12.2789 2.49621C12.3319 2.26639 12.3194 2.02629 12.2427 1.80324C12.1637 1.57109 12.0144 1.36931 11.8155 1.22594C11.6165 1.08257 11.3779 1.00473 11.1327 1.00324L1.42268 0.103243C1.23417 0.0885351 1.0447 0.114498 0.867101 0.179372C0.689499 0.244247 0.527907 0.346519 0.393262 0.479267C0.258618 0.612015 0.154064 0.772141 0.0866771 0.948805C0.0192902 1.12547 -0.00935673 1.31455 0.00267551 1.50324L1.01268 11.0032ZM9.71268 12.0032L6.37268 8.70324L8.87268 6.20324L12.2127 9.50324L9.71268 12.0032ZM8.30268 3.20324L3.30268 8.10324L2.87268 2.60324L8.30268 3.20324Z" fill="white"/>
<path d="M1.52271 31.3033L11.2327 30.4033C11.4728 30.383 11.703 30.2979 11.8985 30.157C12.094 30.0161 12.2475 29.8247 12.3427 29.6033C12.4256 29.3811 12.4414 29.1394 12.3881 28.9082C12.3347 28.6771 12.2146 28.4667 12.0427 28.3033L10.7227 27.0033L14.9727 22.8033C15.0937 22.6867 15.1899 22.5469 15.2556 22.3923C15.3214 22.2376 15.3552 22.0713 15.3552 21.9033C15.3552 21.7353 15.3214 21.569 15.2556 21.4143C15.1899 21.2597 15.0937 21.1199 14.9727 21.0033L10.6227 16.7033C10.381 16.4627 10.0538 16.3276 9.71271 16.3276C9.37164 16.3276 9.04445 16.4627 8.80271 16.7033L4.55271 20.9033L3.14271 19.6033C2.97681 19.4449 2.77167 19.3336 2.54844 19.2809C2.32521 19.2281 2.09195 19.2359 1.87271 19.3033C1.64029 19.38 1.43747 19.5271 1.29235 19.7242C1.14722 19.9213 1.06697 20.1586 1.06271 20.4033L0.152711 29.9033C0.13469 30.089 0.1575 30.2765 0.219544 30.4525C0.281588 30.6285 0.381365 30.7888 0.511883 30.9222C0.642402 31.0555 0.800504 31.1588 0.975116 31.2246C1.14973 31.2904 1.33662 31.3173 1.52271 31.3033ZM9.71271 19.3033L12.2427 21.8033L8.87271 25.1033L6.37271 22.6033L9.71271 19.3033ZM3.34271 23.2033L8.34271 28.1033L2.77271 28.6033L3.34271 23.2033Z" fill="white"/>
<path d="M57.0627 53.8032H54.5327V56.3032H57.0627V53.8032Z" fill="white"/>
<path d="M59.5827 51.3032H57.0527V53.8032H59.5827V51.3032Z" fill="white"/>
<path d="M57.0627 48.8032H54.5327V51.3032H57.0627V48.8032Z" fill="white"/>
<path d="M59.5827 46.3032H57.0527V48.8032H59.5827V46.3032Z" fill="white"/>
<path d="M57.0627 43.8032H54.5327V46.3032H57.0627V43.8032Z" fill="white"/>
<path d="M59.5827 41.3032H57.0527V43.8032H59.5827V41.3032Z" fill="white"/>
<path d="M2.63266 53.8032H0.102661V56.3032H2.63266V53.8032Z" fill="white"/>
<path d="M5.16269 51.3032H2.63269V53.8032H5.16269V51.3032Z" fill="white"/>
<path d="M2.63266 48.8032H0.102661V51.3032H2.63266V48.8032Z" fill="white"/>
<path d="M5.16269 46.3032H2.63269V48.8032H5.16269V46.3032Z" fill="white"/>
<path d="M2.63266 43.8032H0.102661V46.3032H2.63266V43.8032Z" fill="white"/>
<path d="M5.16269 41.3032H2.63269V43.8032H5.16269V41.3032Z" fill="white"/>
</svg>
