<svg width="102" height="100" viewBox="0 0 102 100" fill="none" xmlns="http://www.w3.org/2000/svg">
<path d="M71.52 74.6H29.64C29.5362 74.5929 29.4385 74.5485 29.365 74.475C29.2914 74.4015 29.247 74.3037 29.24 74.2V50.4C29.24 50.3 29.34 50.2 29.34 50.1L50.28 30.8C50.3155 30.7543 50.361 30.7173 50.413 30.6919C50.465 30.6664 50.5221 30.6532 50.58 30.6532C50.6379 30.6532 50.695 30.6664 50.747 30.6919C50.799 30.7173 50.8445 30.7543 50.88 30.8L71.82 50C71.8578 50.0395 71.8864 50.0869 71.9037 50.1387C71.9209 50.1906 71.9265 50.2457 71.92 50.3V74.1C72 74.4 71.82 74.6 71.52 74.6ZM30 73.7H71V50.6L50.57 31.6L30 50.6V73.7Z" fill="black"/>
<path d="M77.89 56.5999C77.8357 56.6065 77.7806 56.6009 77.7288 56.5836C77.6769 56.5663 77.6295 56.5377 77.59 56.4999L50.59 31.5999L23.67 56.4999C23.6073 56.5665 23.5255 56.6118 23.4359 56.6298C23.3463 56.6477 23.2534 56.6373 23.17 56.5999C22.96 56.4999 22.86 56.4 22.86 56.1999V50.9999C22.86 50.8999 22.96 50.7999 22.96 50.6999L50.17 25.5999C50.2065 25.5541 50.2529 25.5171 50.3057 25.4917C50.3585 25.4662 50.4164 25.453 50.475 25.453C50.5336 25.453 50.5915 25.4662 50.6443 25.4917C50.6971 25.5171 50.7435 25.5541 50.78 25.5999L78.09 50.6999C78.1308 50.7376 78.1621 50.7845 78.1812 50.8367C78.2003 50.8888 78.2068 50.9448 78.2 50.9999V56.1999C78.2 56.4 78.09 56.4999 77.89 56.5999ZM50.58 30.5999C50.6343 30.5934 50.6893 30.599 50.7412 30.6163C50.7931 30.6336 50.8405 30.6621 50.88 30.6999L77.39 55.0999V51.1999L50.58 26.4999L23.77 51.1999V55.0999L50.28 30.6999C50.3195 30.6621 50.3669 30.6336 50.4188 30.6163C50.4706 30.599 50.5257 30.5934 50.58 30.5999Z" fill="black"/>
<path d="M69.7 44C69.6457 44.0066 69.5906 44.001 69.5388 43.9837C69.4869 43.9664 69.4395 43.9379 69.4 43.9001L64.74 39.5C64.7022 39.4605 64.6736 39.4131 64.6563 39.3613C64.639 39.3094 64.6334 39.2543 64.64 39.2001V35.7001C64.6472 35.5947 64.6931 35.4956 64.7687 35.4218C64.8443 35.3481 64.9444 35.3047 65.05 35.3H69.7C69.8038 35.3071 69.9015 35.3515 69.975 35.425C70.0486 35.4986 70.093 35.5963 70.1 35.7001V43.5C70.1 43.7 70 43.8001 69.8 43.9001C69.9 44.0001 69.8 44 69.7 44ZM65.55 39L69.29 42.5V36.1H65.55V39Z" fill="black"/>
<path d="M55.13 51.5H47.75C47.6444 51.4953 47.5443 51.4519 47.4687 51.3782C47.393 51.3044 47.3472 51.2053 47.34 51.0999V46.0999C47.3472 45.9946 47.393 45.8955 47.4687 45.8217C47.5443 45.748 47.6444 45.7046 47.75 45.7H55.13C55.2348 45.7067 55.3338 45.7507 55.409 45.8241C55.4842 45.8975 55.5306 45.9953 55.54 46.0999V51.0999C55.5306 51.2046 55.4842 51.3024 55.409 51.3758C55.3338 51.4492 55.2348 51.4932 55.13 51.5ZM48.25 50.5999H54.63V46.5H48.15V50.5999H48.25Z" fill="black"/>
<path d="M58.67 51.5H56.24C56.1362 51.4929 56.0385 51.4485 55.9649 51.375C55.8914 51.3014 55.847 51.2037 55.84 51.0999V46.0999C55.847 45.9962 55.8914 45.8985 55.9649 45.8249C56.0385 45.7514 56.1362 45.707 56.24 45.7H58.67C58.7748 45.7067 58.8738 45.7507 58.949 45.8241C59.0242 45.8975 59.0706 45.9953 59.08 46.0999V51.0999C59.18 51.2999 59 51.5 58.67 51.5ZM56.75 50.5999H58.27V46.5H56.75V50.5999Z" fill="black"/>
<path d="M56.35 50.8999H55.13C55.0262 50.8929 54.9285 50.8485 54.8549 50.7749C54.7814 50.7014 54.737 50.6037 54.73 50.4999V46.7999C54.737 46.6961 54.7814 46.5984 54.8549 46.5249C54.9285 46.4513 55.0262 46.4069 55.13 46.3999H56.35C56.4538 46.4069 56.5515 46.4513 56.625 46.5249C56.6986 46.5984 56.743 46.6961 56.75 46.7999V50.4999C56.743 50.6037 56.6986 50.7014 56.625 50.7749C56.5515 50.8485 56.4538 50.8929 56.35 50.8999ZM55.54 49.9999H55.84V47.1999H55.54V49.9999Z" fill="black"/>
<path d="M47.7499 50.6999H42.4899C42.4109 50.6999 42.3329 50.6819 42.2618 50.6472C42.1908 50.6126 42.1286 50.5622 42.0799 50.4999C42.0307 50.4449 42.0035 50.3737 42.0035 50.2999C42.0035 50.2261 42.0307 50.1549 42.0799 50.0999C42.5895 48.9562 43.3737 47.9561 44.3628 47.1884C45.352 46.4208 46.5155 45.9095 47.7499 45.6999C47.8909 45.6849 48.0326 45.7203 48.1499 45.7999C48.2109 45.8475 48.2605 45.9081 48.2951 45.9773C48.3297 46.0465 48.3484 46.1225 48.3499 46.1999V50.2999C48.2975 50.4161 48.2134 50.5152 48.1073 50.586C48.0012 50.6567 47.8774 50.6962 47.7499 50.6999ZM43.1999 49.7999H47.3399V46.6999C46.4703 46.8954 45.6518 47.2727 44.9383 47.807C44.2248 48.3413 43.6324 49.0204 43.1999 49.7999Z" fill="black"/>
<path d="M53 68.5999H49.87C49.7662 68.5929 49.6685 68.5485 49.5949 68.4749C49.5214 68.4014 49.477 68.3037 49.47 68.1999V62.2999C49.477 62.1961 49.5214 62.0984 49.5949 62.0249C49.6685 61.9513 49.7662 61.9069 49.87 61.8999H53C53.1037 61.9069 53.2015 61.9513 53.275 62.0249C53.3486 62.0984 53.393 62.1961 53.4 62.2999V68.1999C53.393 68.3037 53.3486 68.4014 53.275 68.4749C53.2015 68.5485 53.1037 68.5929 53 68.5999ZM50.27 67.6999H52.5V62.6999H50.28L50.27 67.6999Z" fill="black"/>
<path d="M53 59.5999H49.87C49.7662 59.5929 49.6685 59.5485 49.5949 59.475C49.5214 59.4014 49.477 59.3037 49.47 59.2V51.0999C49.477 50.9962 49.5214 50.8985 49.5949 50.8249C49.6685 50.7514 49.7662 50.707 49.87 50.7H53C53.1037 50.707 53.2015 50.7514 53.275 50.8249C53.3486 50.8985 53.393 50.9962 53.4 51.0999V59.2C53.393 59.3037 53.3486 59.4014 53.275 59.475C53.2015 59.5485 53.1037 59.5929 53 59.5999ZM50.27 58.7H52.5V51.5H50.28L50.27 58.7Z" fill="black"/>
<path d="M51.39 50.1C51.0942 50.096 50.8062 50.0047 50.5622 49.8375C50.3182 49.6703 50.129 49.4347 50.0186 49.1603C49.9081 48.8859 49.8812 48.5849 49.9413 48.2953C50.0015 48.0056 50.1459 47.7402 50.3564 47.5324C50.567 47.3247 50.8343 47.1838 51.1247 47.1275C51.4151 47.0712 51.7157 47.1021 51.9886 47.2162C52.2615 47.3303 52.4946 47.5225 52.6586 47.7687C52.8225 48.0149 52.91 48.3041 52.91 48.6C52.9128 48.7994 52.8752 48.9974 52.7996 49.1819C52.7239 49.3665 52.6117 49.5338 52.4697 49.6739C52.3278 49.814 52.1589 49.924 51.9734 49.9972C51.7879 50.0704 51.5894 50.1054 51.39 50.1ZM51.39 48C51.2309 48 51.0783 48.0632 50.9658 48.1757C50.8532 48.2882 50.79 48.4408 50.79 48.6C50.79 48.7591 50.8532 48.9117 50.9658 49.0242C51.0783 49.1368 51.2309 49.2 51.39 49.2C51.5471 49.1907 51.6955 49.1248 51.8077 49.0145C51.9199 48.9042 51.9882 48.7569 52 48.6C52.01 48.5179 52.001 48.4347 51.9737 48.3566C51.9464 48.2786 51.9016 48.2079 51.8426 48.1499C51.7837 48.0919 51.7123 48.0483 51.6338 48.0223C51.5553 47.9963 51.4719 47.9886 51.39 48Z" fill="black"/>
<path d="M41.1699 64.5001C40.3826 64.4959 39.6146 64.2554 38.9656 63.8096C38.3166 63.3639 37.8164 62.7334 37.5299 62.0001C37.4299 61.9001 37.5299 61.7 37.6299 61.6C37.6786 61.5377 37.7408 61.4873 37.8118 61.4527C37.8829 61.418 37.9609 61.4 38.0399 61.4001H41.6799V60.0001H37.9999C37.8458 59.9776 37.7025 59.9077 37.5899 59.8C37.5104 59.6827 37.475 59.541 37.4899 59.4001C37.7988 58.5446 38.399 57.8253 39.1854 57.3683C39.9717 56.9113 40.8939 56.7458 41.79 56.901C42.6862 57.0561 43.4991 57.5219 44.0861 58.2166C44.673 58.9113 44.9966 59.7906 44.9999 60.7001C45.0054 61.2031 44.9098 61.7022 44.7189 62.1676C44.5279 62.6331 44.2455 63.0555 43.8884 63.4099C43.5312 63.7642 43.1066 64.0433 42.6397 64.2305C42.1727 64.4178 41.6729 64.5094 41.1699 64.5001ZM38.7399 62.3C39.0116 62.6952 39.374 63.0194 39.7968 63.2456C40.2196 63.4718 40.6905 63.5933 41.1699 63.6C41.5508 63.6 41.9279 63.525 42.2797 63.3793C42.6315 63.2336 42.9512 63.02 43.2205 62.7507C43.4898 62.4814 43.7034 62.1617 43.8492 61.8098C43.9949 61.458 44.0699 61.0809 44.0699 60.7001C44.0699 60.3192 43.9949 59.9421 43.8492 59.5903C43.7034 59.2384 43.4898 58.9187 43.2205 58.6494C42.9512 58.3802 42.6315 58.1665 42.2797 58.0208C41.9279 57.8751 41.5508 57.8 41.1699 57.8C40.6883 57.7954 40.2133 57.9121 39.7887 58.1393C39.364 58.3665 39.0034 58.6969 38.7399 59.1H42.0799C42.1848 59.1068 42.2837 59.1508 42.3589 59.2242C42.4341 59.2976 42.4806 59.3954 42.4899 59.5001V61.8C42.4806 61.9047 42.4341 62.0025 42.3589 62.0759C42.2837 62.1493 42.1848 62.1933 42.0799 62.2001H38.7399V62.3Z" fill="black"/>
<path d="M60 64.4999C58.9921 64.4999 58.0256 64.0995 57.3129 63.3869C56.6003 62.6743 56.2 61.7077 56.2 60.6999C56.2 59.6921 56.6003 58.7255 57.3129 58.0129C58.0256 57.3003 58.9921 56.8999 60 56.8999C60.7873 56.904 61.5553 57.1446 62.2043 57.5903C62.8533 58.0361 63.3535 58.6665 63.6399 59.3999C63.7399 59.4999 63.64 59.6999 63.54 59.7999C63.4913 59.8622 63.4291 59.9126 63.3581 59.9473C63.287 59.9819 63.209 59.9999 63.13 59.9999H59.4799V61.3999H63.1199C63.2735 61.4242 63.4163 61.4939 63.5299 61.5999C63.6095 61.7172 63.6449 61.8589 63.63 61.9999C63.3441 62.7317 62.8455 63.3611 62.1984 63.8067C61.5514 64.2523 60.7856 64.4938 60 64.4999ZM60 57.7999C59.6191 57.7999 59.242 57.8749 58.8902 58.0206C58.5383 58.1664 58.2186 58.38 57.9493 58.6493C57.6801 58.9186 57.4664 59.2383 57.3207 59.5901C57.175 59.942 57.0999 60.3191 57.0999 60.6999C57.0999 61.0807 57.175 61.4578 57.3207 61.8097C57.4664 62.1615 57.6801 62.4812 57.9493 62.7505C58.2186 63.0198 58.5383 63.2334 58.8902 63.3792C59.242 63.5249 59.6191 63.5999 60 63.5999C60.4815 63.6045 60.9565 63.4878 61.3812 63.2607C61.8059 63.0335 62.1665 62.7031 62.43 62.2999H59.08C58.9744 62.2952 58.8743 62.2519 58.7987 62.1781C58.723 62.1043 58.6772 62.0053 58.6699 61.8999V59.5999C58.6772 59.4945 58.723 59.3955 58.7987 59.3217C58.8743 59.2479 58.9744 59.2046 59.08 59.1999H62.4199C62.1794 58.7708 61.8278 58.4144 61.4019 58.168C60.9761 57.9217 60.4919 57.7945 60 57.7999Z" fill="black"/>
<path d="M57 62.6999H44.21C44.131 62.6999 44.053 62.6819 43.9819 62.6473C43.9109 62.6126 43.8487 62.5622 43.8 62.4999C43.7508 62.4449 43.7236 62.3737 43.7236 62.2999C43.7236 62.2261 43.7508 62.1549 43.8 62.0999C43.997 61.6944 44.1028 61.2507 44.11 60.7999C44.1143 60.3478 44.0079 59.9014 43.8 59.4999C43.7508 59.4449 43.7236 59.3737 43.7236 59.2999C43.7236 59.2261 43.7508 59.1549 43.8 59.0999C43.8487 59.0376 43.9109 58.9872 43.9819 58.9525C44.053 58.9179 44.131 58.8999 44.21 58.8999H56.85C56.9288 58.9013 57.0064 58.9199 57.0772 58.9545C57.148 58.989 57.2104 59.0387 57.26 59.0999C57.3092 59.1549 57.3364 59.2261 57.3364 59.2999C57.3364 59.3737 57.3092 59.4449 57.26 59.4999C57.0775 59.9084 56.9887 60.3526 57 60.7999C56.991 61.2526 57.0977 61.7 57.31 62.0999C57.3592 62.1549 57.3864 62.2261 57.3864 62.2999C57.3864 62.3737 57.3592 62.4449 57.31 62.4999C57.16 62.5999 57.05 62.6999 57 62.6999ZM45 61.7999H56.24C55.9729 61.0909 55.9729 60.3089 56.24 59.5999H44.92C45.1871 60.3089 45.1871 61.0909 44.92 61.7999H45Z" fill="black"/>
</svg>
