<svg width="82" height="15" viewBox="0 0 82 15" fill="none" xmlns="http://www.w3.org/2000/svg">
<path d="M10.321 10.5498C10.321 11.7972 9.84989 12.7461 8.9077 13.3963C7.97879 14.0466 6.84418 14.3717 5.50389 14.3717C4.17686 14.3717 3.08207 14.2124 2.2195 13.8939C1.3702 13.5755 0.945557 13.2238 0.945557 12.839V10.51C0.945557 10.2314 1.05172 10.092 1.26404 10.092C1.43656 10.092 1.55599 10.2181 1.62234 10.4702C1.96737 11.492 2.41192 12.2551 2.956 12.7593C3.51335 13.2503 4.28966 13.4958 5.28493 13.4958C6.28019 13.4958 7.08304 13.2702 7.69348 12.8191C8.31718 12.3679 8.62903 11.7442 8.62903 10.948C8.62903 10.0721 8.13803 9.33562 7.15603 8.73845C6.71811 8.47305 6.23375 8.21428 5.70294 7.96215C5.17213 7.71001 4.64132 7.45124 4.11051 7.18584C3.5797 6.90716 3.09534 6.60858 2.65742 6.2901C1.67542 5.5735 1.18442 4.67113 1.18442 3.58297C1.18442 2.48154 1.60243 1.61233 2.43846 0.975362C3.28775 0.325121 4.28302 0 5.42426 0C6.56551 0 7.53423 0.145973 8.33045 0.437918C9.12666 0.716593 9.52477 1.02844 9.52477 1.37347V3.38391C9.52477 3.64932 9.42524 3.78202 9.22619 3.78202C9.04041 3.78202 8.90107 3.64932 8.80818 3.38391C8.5295 2.53462 8.16457 1.90428 7.71338 1.4929C7.26219 1.08152 6.58541 0.875835 5.68303 0.875835C4.79393 0.875835 4.0906 1.08816 3.57306 1.51281C3.05553 1.93746 2.79676 2.46827 2.79676 3.10524C2.79676 3.72894 3.05553 4.27302 3.57306 4.73748C4.0906 5.18866 4.71431 5.59341 5.44417 5.9517C6.1873 6.29673 6.9238 6.66166 7.65367 7.0465C8.3968 7.41807 9.02713 7.90243 9.54467 8.49959C10.0622 9.09675 10.321 9.78017 10.321 10.5498Z" fill="#233429"/>
<path d="M17.2432 8.67874H21.6821C21.8281 8.67874 21.8745 8.59912 21.8215 8.43987L19.4527 2.34883L17.084 8.47969C17.0442 8.61239 17.0973 8.67874 17.2432 8.67874ZM15.392 12.839C15.3655 12.9186 15.3522 13.0115 15.3522 13.1176C15.3522 13.2105 15.4053 13.3233 15.5115 13.456C15.6176 13.5755 15.7636 13.6418 15.9494 13.6551L16.3873 13.6949C16.5598 13.7214 16.6461 13.8077 16.6461 13.9537C16.6461 14.1394 16.5465 14.2323 16.3475 14.2323L14.6157 14.1527L12.8043 14.2323C12.6185 14.2323 12.5257 14.1461 12.5257 13.9736C12.5257 13.7878 12.5986 13.6949 12.7446 13.6949L13.1228 13.6551C13.6934 13.5887 14.0783 13.3167 14.2773 12.839L19.393 0.238864C19.4461 0.0796212 19.5987 0 19.8508 0C20.1162 0 20.2821 0.0796212 20.3485 0.238864L25.4442 12.839C25.6168 13.33 25.995 13.602 26.5788 13.6551L26.9969 13.6949C27.0499 13.6949 27.0964 13.7214 27.1362 13.7745C27.176 13.8276 27.1959 13.8807 27.1959 13.9338C27.1959 14.1328 27.103 14.2323 26.9172 14.2323L24.6281 14.1527L22.5779 14.2323C22.3921 14.2323 22.2992 14.1527 22.2992 13.9935C22.2992 13.8077 22.3788 13.7082 22.5381 13.6949L22.9959 13.6551C23.1684 13.6418 23.3077 13.5755 23.4139 13.456C23.5333 13.3366 23.593 13.2238 23.593 13.1176C23.593 13.0115 23.5731 12.9186 23.5333 12.839L22.3589 9.79344C22.3191 9.66074 22.2129 9.59439 22.0404 9.59439H16.8849C16.7257 9.59439 16.6195 9.66074 16.5664 9.79344L15.392 12.839Z" fill="#233429"/>
<path d="M40.8899 0.159243C41.0756 0.159243 41.1685 0.238864 41.1685 0.398107C41.1685 0.55735 41.0956 0.650242 40.9496 0.676782L40.3723 0.736498C39.9344 0.776309 39.5562 1.04171 39.2377 1.53271L35.3562 7.74319C35.1969 8.02186 35.104 8.33371 35.0775 8.67874V12.839C35.0775 13.0778 35.1638 13.2702 35.3363 13.4162C35.5088 13.5489 35.7211 13.6285 35.9732 13.6551L36.5505 13.6949C36.7097 13.6949 36.7894 13.7811 36.7894 13.9537C36.7894 14.0333 36.7562 14.0996 36.6898 14.1527C36.6368 14.2058 36.577 14.2323 36.5107 14.2323L34.2614 14.1527L32.2708 14.2323C32.0851 14.2323 31.9922 14.1527 31.9922 13.9935C31.9922 13.821 32.0652 13.7214 32.2111 13.6949L32.5495 13.6551C33.0936 13.5887 33.3656 13.3167 33.3656 12.839V8.95741C33.3656 8.70528 33.3059 8.47305 33.1865 8.26073L28.8471 1.53271C28.5286 1.04171 28.1438 0.776309 27.6926 0.736498L27.1154 0.676782C26.9694 0.650242 26.8964 0.55735 26.8964 0.398107C26.8964 0.238864 26.9893 0.159243 27.1751 0.159243L29.5438 0.218959L31.6538 0.179148C31.8528 0.179148 31.9524 0.265405 31.9524 0.437918C31.9524 0.610431 31.8727 0.703323 31.7135 0.716593L31.3353 0.756404C31.0964 0.782945 30.9372 0.882471 30.8576 1.05498C30.7912 1.2275 30.8111 1.38674 30.9173 1.53271L34.3808 7.22565C34.4339 7.31854 34.4936 7.36498 34.56 7.36498C34.6263 7.36498 34.686 7.33181 34.7391 7.26546L38.1429 1.53271C38.2491 1.38674 38.2624 1.23413 38.1827 1.07489C38.1164 0.902377 37.9638 0.796215 37.7249 0.756404L37.3467 0.716593C37.1609 0.690052 37.0813 0.597161 37.1078 0.437918C37.1344 0.265405 37.2339 0.179148 37.4064 0.179148L38.959 0.218959L40.8899 0.159243Z" fill="#233429"/>
<path d="M45.1701 9.03704V1.53271C45.1701 1.05498 44.8649 0.78958 44.2545 0.736498L43.6772 0.676782C43.5313 0.650242 43.4583 0.563985 43.4583 0.418012C43.4583 0.232229 43.5512 0.139337 43.737 0.139337L45.9863 0.218959L47.9569 0.139337C48.1559 0.139337 48.2555 0.218959 48.2555 0.378202C48.2555 0.563985 48.1692 0.663512 47.9967 0.676782L47.6583 0.736498C47.1275 0.82939 46.8621 1.09479 46.8621 1.53271V9.05694C46.8621 10.2911 47.2337 11.2532 47.9768 11.9432C48.7199 12.6333 49.6953 12.9783 50.9029 12.9783C52.1238 12.9783 53.1057 12.6266 53.8489 11.9233C54.6053 11.22 54.9835 10.2645 54.9835 9.05694V1.53271C54.9835 1.09479 54.7181 0.82939 54.1873 0.736498L53.8489 0.676782C53.6764 0.650242 53.5901 0.55735 53.5901 0.398107C53.5901 0.238864 53.6896 0.159243 53.8887 0.159243L55.4413 0.218959L57.3721 0.159243C57.5579 0.159243 57.6508 0.238864 57.6508 0.398107C57.6508 0.55735 57.5778 0.650242 57.4319 0.676782L56.8546 0.736498C56.2442 0.80285 55.9389 1.06825 55.9389 1.53271V9.03704C55.9389 10.6693 55.4347 11.9698 54.4261 12.9385C53.4309 13.8939 52.1503 14.3717 50.5844 14.3717C49.0185 14.3717 47.7247 13.874 46.7029 12.8788C45.681 11.8835 45.1701 10.6029 45.1701 9.03704Z" fill="#233429"/>
<path d="M69.0056 5.89199C69.6293 5.37445 69.9411 4.69767 69.9411 3.86164C69.9411 3.02562 69.6359 2.3621 69.0255 1.8711C68.415 1.36683 67.6454 1.1147 66.7165 1.1147H64.8454C64.3145 1.1147 64.0491 1.38011 64.0491 1.91092V6.38962C64.0491 6.56214 64.1221 6.64839 64.2681 6.64839H66.7165C67.6321 6.64839 68.3951 6.39626 69.0056 5.89199ZM67.3932 0.218959C68.6672 0.218959 69.7089 0.54408 70.5184 1.19432C71.3411 1.84456 71.7525 2.70713 71.7525 3.78202C71.7525 4.84364 71.3478 5.72611 70.5383 6.42943C69.7421 7.11949 68.853 7.47778 67.871 7.50432L67.8511 7.54413C68.1297 7.63702 68.3487 7.80954 68.5079 8.06167L71.5136 12.839C71.7923 13.3034 72.2302 13.5755 72.8274 13.6551L73.1857 13.6949C73.3582 13.7214 73.4445 13.8077 73.4445 13.9537C73.4445 14.1394 73.3449 14.2323 73.1459 14.2323C71.8719 14.1793 71.0757 14.1527 70.7572 14.1527C70.452 14.1527 70.2132 14.02 70.0406 13.7546L66.6766 8.1612C66.4112 7.74982 66.1193 7.54413 65.8008 7.54413C65.8008 7.54413 65.7942 7.54413 65.7809 7.54413H64.3477C64.1487 7.54413 64.0491 7.62375 64.0491 7.783V12.839C64.0491 13.0778 64.1354 13.2702 64.3079 13.4162C64.4804 13.5622 64.6927 13.6418 64.9449 13.6551L65.7809 13.6949C65.9269 13.6949 65.9999 13.7878 65.9999 13.9736C65.9999 14.1461 65.907 14.2323 65.7212 14.2323L63.233 14.1527L61.0235 14.2323C60.851 14.2323 60.7515 14.1527 60.7249 13.9935C60.7249 13.8077 60.8046 13.7082 60.9638 13.6949L61.5411 13.6551C62.0851 13.6153 62.3572 13.3432 62.3572 12.839V1.53271C62.3572 1.05498 62.052 0.78958 61.4415 0.736498L60.8643 0.676782C60.7183 0.650242 60.6453 0.563985 60.6453 0.418012C60.6453 0.232229 60.7382 0.139337 60.924 0.139337L63.6709 0.218959H67.3932Z" fill="#233429"/>
<path d="M76.2528 14.2323C76.067 14.2323 75.9742 14.1527 75.9742 13.9935C75.9742 13.821 76.0471 13.7214 76.1931 13.6949L76.5315 13.6551C77.0756 13.5887 77.3476 13.3167 77.3476 12.839V1.53271C77.3476 1.05498 77.0424 0.78958 76.432 0.736498L75.8547 0.676782C75.7088 0.650242 75.6358 0.563985 75.6358 0.418012C75.6358 0.232229 75.7287 0.139337 75.9144 0.139337L78.1637 0.218959L80.1344 0.139337C80.3334 0.139337 80.433 0.218959 80.433 0.378202C80.433 0.563985 80.3467 0.663512 80.1742 0.676782L79.8358 0.736498C79.305 0.82939 79.0396 1.09479 79.0396 1.53271V12.839C79.0396 13.0778 79.1258 13.2702 79.2984 13.4162C79.4709 13.5489 79.6832 13.6285 79.9353 13.6551L80.5126 13.6949C80.6718 13.6949 80.7514 13.7811 80.7514 13.9537C80.7514 14.0333 80.7183 14.0996 80.6519 14.1527C80.5988 14.2058 80.5391 14.2323 80.4728 14.2323L78.2235 14.1527L76.2528 14.2323Z" fill="#233429"/>
<path d="M10.8739 10.5498C10.8739 11.7972 10.4028 12.7461 9.46063 13.3963C8.53171 14.0466 7.39711 14.3717 6.05681 14.3717C4.72979 14.3717 3.63499 14.2124 2.77243 13.8939C1.92313 13.5755 1.49848 13.2238 1.49848 12.839V10.51C1.49848 10.2314 1.60465 10.092 1.81697 10.092C1.98948 10.092 2.10891 10.2181 2.17527 10.4702C2.52029 11.492 2.96485 12.2551 3.50893 12.7593C4.06628 13.2503 4.84258 13.4958 5.83785 13.4958C6.83312 13.4958 7.63597 13.2702 8.2464 12.8191C8.8701 12.3679 9.18195 11.7442 9.18195 10.948C9.18195 10.0721 8.69096 9.33562 7.70896 8.73845C7.27104 8.47305 6.78668 8.21428 6.25587 7.96215C5.72506 7.71001 5.19425 7.45124 4.66344 7.18584C4.13263 6.90716 3.64826 6.60858 3.21034 6.2901C2.22835 5.5735 1.73735 4.67113 1.73735 3.58297C1.73735 2.48154 2.15536 1.61233 2.99139 0.975362C3.84068 0.325121 4.83595 0 5.97719 0C7.11843 0 8.08716 0.145973 8.88337 0.437918C9.67959 0.716593 10.0777 1.02844 10.0777 1.37347V3.38391C10.0777 3.64932 9.97817 3.78202 9.77912 3.78202C9.59333 3.78202 9.45399 3.64932 9.3611 3.38391C9.08243 2.53462 8.7175 1.90428 8.26631 1.4929C7.81512 1.08152 7.13834 0.875835 6.23596 0.875835C5.34685 0.875835 4.64353 1.08816 4.12599 1.51281C3.60845 1.93746 3.34968 2.46827 3.34968 3.10524C3.34968 3.72894 3.60845 4.27302 4.12599 4.73748C4.64353 5.18866 5.26723 5.59341 5.9971 5.9517C6.74023 6.29673 7.47673 6.66166 8.20659 7.0465C8.94973 7.41807 9.58006 7.90243 10.0976 8.49959C10.6151 9.09675 10.8739 9.78017 10.8739 10.5498Z" fill="#233429"/>
<path d="M17.7962 8.67874H22.2351C22.381 8.67874 22.4275 8.59912 22.3744 8.43987L20.0057 2.34883L17.6369 8.47969C17.5971 8.61239 17.6502 8.67874 17.7962 8.67874ZM15.945 12.839C15.9184 12.9186 15.9051 13.0115 15.9051 13.1176C15.9051 13.2105 15.9582 13.3233 16.0644 13.456C16.1706 13.5755 16.3165 13.6418 16.5023 13.6551L16.9402 13.6949C17.1127 13.7214 17.199 13.8077 17.199 13.9537C17.199 14.1394 17.0995 14.2323 16.9004 14.2323L15.1686 14.1527L13.3573 14.2323C13.1715 14.2323 13.0786 14.1461 13.0786 13.9736C13.0786 13.7878 13.1516 13.6949 13.2975 13.6949L13.6757 13.6551C14.2464 13.5887 14.6312 13.3167 14.8303 12.839L19.9459 0.238864C19.999 0.0796212 20.1516 0 20.4038 0C20.6692 0 20.835 0.0796212 20.9014 0.238864L25.9972 12.839C26.1697 13.33 26.5479 13.602 27.1318 13.6551L27.5498 13.6949C27.6029 13.6949 27.6493 13.7214 27.6891 13.7745C27.7289 13.8276 27.7488 13.8807 27.7488 13.9338C27.7488 14.1328 27.6559 14.2323 27.4702 14.2323L25.181 14.1527L23.1308 14.2323C22.945 14.2323 22.8521 14.1527 22.8521 13.9935C22.8521 13.8077 22.9317 13.7082 23.091 13.6949L23.5488 13.6551C23.7213 13.6418 23.8607 13.5755 23.9668 13.456C24.0863 13.3366 24.146 13.2238 24.146 13.1176C24.146 13.0115 24.1261 12.9186 24.0863 12.839L22.9118 9.79344C22.872 9.66074 22.7659 9.59439 22.5933 9.59439H17.4379C17.2786 9.59439 17.1725 9.66074 17.1194 9.79344L15.945 12.839Z" fill="#233429"/>
<path d="M41.4428 0.159243C41.6286 0.159243 41.7215 0.238864 41.7215 0.398107C41.7215 0.55735 41.6485 0.650242 41.5025 0.676782L40.9253 0.736498C40.4873 0.776309 40.1091 1.04171 39.7906 1.53271L35.9091 7.74319C35.7499 8.02186 35.657 8.33371 35.6304 8.67874V12.839C35.6304 13.0778 35.7167 13.2702 35.8892 13.4162C36.0617 13.5489 36.274 13.6285 36.5262 13.6551L37.1034 13.6949C37.2627 13.6949 37.3423 13.7811 37.3423 13.9537C37.3423 14.0333 37.3091 14.0996 37.2428 14.1527C37.1897 14.2058 37.13 14.2323 37.0636 14.2323L34.8143 14.1527L32.8238 14.2323C32.638 14.2323 32.5451 14.1527 32.5451 13.9935C32.5451 13.821 32.6181 13.7214 32.7641 13.6949L33.1024 13.6551C33.6465 13.5887 33.9186 13.3167 33.9186 12.839V8.95741C33.9186 8.70528 33.8589 8.47305 33.7394 8.26073L29.4 1.53271C29.0816 1.04171 28.6967 0.776309 28.2455 0.736498L27.6683 0.676782C27.5223 0.650242 27.4493 0.55735 27.4493 0.398107C27.4493 0.238864 27.5422 0.159243 27.728 0.159243L30.0967 0.218959L32.2067 0.179148C32.4058 0.179148 32.5053 0.265405 32.5053 0.437918C32.5053 0.610431 32.4257 0.703323 32.2664 0.716593L31.8882 0.756404C31.6494 0.782945 31.4901 0.882471 31.4105 1.05498C31.3441 1.2275 31.364 1.38674 31.4702 1.53271L34.9337 7.22565C34.9868 7.31854 35.0465 7.36498 35.1129 7.36498C35.1792 7.36498 35.239 7.33181 35.292 7.26546L38.6959 1.53271C38.802 1.38674 38.8153 1.23413 38.7357 1.07489C38.6693 0.902377 38.5167 0.796215 38.2778 0.756404L37.8996 0.716593C37.7139 0.690052 37.6342 0.597161 37.6608 0.437918C37.6873 0.265405 37.7868 0.179148 37.9594 0.179148L39.512 0.218959L41.4428 0.159243Z" fill="#233429"/>
<path d="M45.7231 9.03704V1.53271C45.7231 1.05498 45.4179 0.78958 44.8074 0.736498L44.2302 0.676782C44.0842 0.650242 44.0112 0.563985 44.0112 0.418012C44.0112 0.232229 44.1041 0.139337 44.2899 0.139337L46.5392 0.218959L48.5098 0.139337C48.7089 0.139337 48.8084 0.218959 48.8084 0.378202C48.8084 0.563985 48.7221 0.663512 48.5496 0.676782L48.2112 0.736498C47.6804 0.82939 47.415 1.09479 47.415 1.53271V9.05694C47.415 10.2911 47.7866 11.2532 48.5297 11.9432C49.2729 12.6333 50.2482 12.9783 51.4558 12.9783C52.6767 12.9783 53.6587 12.6266 54.4018 11.9233C55.1582 11.22 55.5364 10.2645 55.5364 9.05694V1.53271C55.5364 1.09479 55.271 0.82939 54.7402 0.736498L54.4018 0.676782C54.2293 0.650242 54.143 0.55735 54.143 0.398107C54.143 0.238864 54.2426 0.159243 54.4416 0.159243L55.9942 0.218959L57.9251 0.159243C58.1108 0.159243 58.2037 0.238864 58.2037 0.398107C58.2037 0.55735 58.1307 0.650242 57.9848 0.676782L57.4075 0.736498C56.7971 0.80285 56.4919 1.06825 56.4919 1.53271V9.03704C56.4919 10.6693 55.9876 11.9698 54.9791 12.9385C53.9838 13.8939 52.7032 14.3717 51.1373 14.3717C49.5714 14.3717 48.2776 13.874 47.2558 12.8788C46.234 11.8835 45.7231 10.6029 45.7231 9.03704Z" fill="#233429"/>
<path d="M69.5585 5.89199C70.1822 5.37445 70.4941 4.69767 70.4941 3.86164C70.4941 3.02562 70.1888 2.3621 69.5784 1.8711C68.968 1.36683 68.1983 1.1147 67.2694 1.1147H65.3983C64.8675 1.1147 64.6021 1.38011 64.6021 1.91092V6.38962C64.6021 6.56214 64.675 6.64839 64.821 6.64839H67.2694C68.185 6.64839 68.9481 6.39626 69.5585 5.89199ZM67.9462 0.218959C69.2201 0.218959 70.2618 0.54408 71.0713 1.19432C71.8941 1.84456 72.3054 2.70713 72.3054 3.78202C72.3054 4.84364 71.9007 5.72611 71.0912 6.42943C70.295 7.11949 69.4059 7.47778 68.4239 7.50432L68.404 7.54413C68.6827 7.63702 68.9016 7.80954 69.0609 8.06167L72.0666 12.839C72.3452 13.3034 72.7832 13.5755 73.3803 13.6551L73.7386 13.6949C73.9111 13.7214 73.9974 13.8077 73.9974 13.9537C73.9974 14.1394 73.8979 14.2323 73.6988 14.2323C72.4249 14.1793 71.6287 14.1527 71.3102 14.1527C71.005 14.1527 70.7661 14.02 70.5936 13.7546L67.2296 8.1612C66.9642 7.74982 66.6722 7.54413 66.3537 7.54413C66.3537 7.54413 66.3471 7.54413 66.3338 7.54413H64.9006C64.7016 7.54413 64.6021 7.62375 64.6021 7.783V12.839C64.6021 13.0778 64.6883 13.2702 64.8608 13.4162C65.0333 13.5622 65.2457 13.6418 65.4978 13.6551L66.3338 13.6949C66.4798 13.6949 66.5528 13.7878 66.5528 13.9736C66.5528 14.1461 66.4599 14.2323 66.2741 14.2323L63.7859 14.1527L61.5764 14.2323C61.4039 14.2323 61.3044 14.1527 61.2779 13.9935C61.2779 13.8077 61.3575 13.7082 61.5167 13.6949L62.094 13.6551C62.6381 13.6153 62.9101 13.3432 62.9101 12.839V1.53271C62.9101 1.05498 62.6049 0.78958 61.9945 0.736498L61.4172 0.676782C61.2712 0.650242 61.1982 0.563985 61.1982 0.418012C61.1982 0.232229 61.2911 0.139337 61.4769 0.139337L64.2239 0.218959H67.9462Z" fill="#233429"/>
<path d="M76.8058 14.2323C76.62 14.2323 76.5271 14.1527 76.5271 13.9935C76.5271 13.821 76.6001 13.7214 76.746 13.6949L77.0844 13.6551C77.6285 13.5887 77.9006 13.3167 77.9006 12.839V1.53271C77.9006 1.05498 77.5953 0.78958 76.9849 0.736498L76.4077 0.676782C76.2617 0.650242 76.1887 0.563985 76.1887 0.418012C76.1887 0.232229 76.2816 0.139337 76.4674 0.139337L78.7167 0.218959L80.6873 0.139337C80.8864 0.139337 80.9859 0.218959 80.9859 0.378202C80.9859 0.563985 80.8996 0.663512 80.7271 0.676782L80.3887 0.736498C79.8579 0.82939 79.5925 1.09479 79.5925 1.53271V12.839C79.5925 13.0778 79.6788 13.2702 79.8513 13.4162C80.0238 13.5489 80.2361 13.6285 80.4883 13.6551L81.0655 13.6949C81.2248 13.6949 81.3044 13.7811 81.3044 13.9537C81.3044 14.0333 81.2712 14.0996 81.2048 14.1527C81.1518 14.2058 81.092 14.2323 81.0257 14.2323L78.7764 14.1527L76.8058 14.2323Z" fill="#233429"/>
</svg>
