<svg width="76" height="61" viewBox="0 0 76 61" fill="none" xmlns="http://www.w3.org/2000/svg">
<path d="M35.8284 1.91839L13.086 24.4091C12.5799 24.9096 12.583 25.728 13.0929 26.2247C13.5892 26.7081 14.3811 26.7054 14.8741 26.2186L35.8115 5.54481C36.8939 4.47606 38.6363 4.48245 39.7108 5.55912L60.3128 26.2024C60.8214 26.7121 61.6303 26.7625 62.1983 26.3199C62.8778 25.7904 62.9361 24.7839 62.3223 24.1794L39.7122 1.91427C38.6345 0.852972 36.9039 0.854806 35.8284 1.91839Z" fill="#233429"/>
<rect x="28.7524" y="17.6523" width="8.21062" height="8.21062" fill="#233429"/>
<rect x="38.1946" y="17.6523" width="8.21062" height="8.21062" fill="#233429"/>
<rect x="38.1946" y="27.0945" width="8.21062" height="8.21062" fill="#233429"/>
<rect x="28.7524" y="27.0945" width="8.21062" height="8.21062" fill="#233429"/>
<path d="M21.4992 56.366C25.4669 59.8527 31.1541 60.6051 33.9609 60.553C34.2528 60.5476 34.4798 60.3051 34.4798 60.0131V59.4106C34.4798 57.5245 27.163 48.448 22.6213 43.0953C22.2729 42.6847 22.6485 42.1027 23.1546 42.2864C29.4914 44.5867 34.2255 50.5954 36.3346 54.2366C36.567 54.6378 37.1157 54.5943 37.1548 54.1323C37.409 51.1284 34.858 44.9196 22.7812 36.1975C12.9572 29.1024 5.45661 26.4971 0.897697 25.9256C-0.223964 25.785 -0.305558 26.8889 0.71526 27.3746C2.13406 28.0495 3.3512 28.8804 4.38529 29.783C8.83845 33.6697 10.3808 39.8612 13.329 44.9842C15.8955 49.4438 18.9703 54.1436 21.4992 56.366Z" fill="#233429"/>
<path d="M53.824 56.366C49.8564 59.8527 44.1691 60.6051 41.3624 60.553C41.0704 60.5476 40.8434 60.3051 40.8434 60.0131V59.4106C40.8434 57.5245 48.1602 48.448 52.702 43.0953C53.0503 42.6847 52.6748 42.1027 52.1687 42.2864C45.8319 44.5867 41.0977 50.5954 38.9886 54.2366C38.7562 54.6378 38.2075 54.5943 38.1684 54.1323C37.9143 51.1284 40.4653 44.9196 52.542 36.1975C62.366 29.1024 69.8666 26.4971 74.4255 25.9256C75.5472 25.785 75.6288 26.8889 74.608 27.3746C73.1892 28.0495 71.972 28.8804 70.938 29.783C66.4848 33.6697 64.9424 39.8612 61.9942 44.9842C59.4277 49.4438 56.353 54.1436 53.824 56.366Z" fill="#233429"/>
</svg>
